<?xml version="1.0" encoding="utf-8"?>
<!-- Generator: Adobe Illustrator 26.0.1, SVG Export Plug-In . SVG Version: 6.00 Build 0)  -->
<svg version="1.1" id="Layer_1" xmlns="http://www.w3.org/2000/svg" xmlns:xlink="http://www.w3.org/1999/xlink" x="0px" y="0px"
	 viewBox="0 0 1604.6 1501.7" style="enable-background:new 0 0 1604.6 1501.7;" xml:space="preserve">
<style type="text/css">
	.st0{fill:url(#SVGID_1_);}
	.st1{fill:#576EEE;}
	.st2{fill:#3D59DD;}
	.st3{fill:#BCC1DB;}
	.st4{fill:url(#SVGID_00000025444957494918247610000013835247215546817697_);}
	.st5{fill:#6589FA;}
	.st6{fill:#829FFB;}
	.st7{fill:url(#SVGID_00000105415897883484776650000012238751028205016993_);}
	.st8{fill:url(#SVGID_00000034052205445729431960000014853660514035073178_);}
	.st9{fill:#4A98EF;}
	.st10{fill:url(#SVGID_00000039817233408052985530000012754126262860359823_);}
	.st11{fill:#2E43B2;}
	.st12{fill:#263AAF;}
	.st13{fill:#70CAFD;}
	.st14{fill:url(#SVGID_00000143585637226553976360000002432576395208466048_);}
	.st15{fill:url(#SVGID_00000064314701593614116220000002057143358288044218_);}
	.st16{fill:url(#SVGID_00000095317766844377814890000015918965910159588010_);}
	.st17{fill:url(#SVGID_00000047017986535311957300000011868194987338746557_);}
	.st18{fill:#E4EBF6;}
	.st19{fill:#E4DFEF;}
	.st20{fill:#9D9ED2;}
	.st21{fill:url(#SVGID_00000075144552826638866580000004072137033346535849_);}
	.st22{fill:url(#SVGID_00000135672452856112303890000003664956157608273305_);}
	.st23{fill:url(#SVGID_00000173132570317813380100000015686728183411714185_);}
	.st24{fill:url(#SVGID_00000149353370659615983760000007389536955417571459_);}
	.st25{fill:#3B4160;}
	.st26{fill:url(#SVGID_00000077304223689451754220000013337898171819145139_);}
	.st27{fill:#140F15;}
	.st28{fill:url(#SVGID_00000168085636538564708350000015704026073963439277_);}
	.st29{fill:url(#SVGID_00000109014570481221471100000017069113296052110728_);}
	.st30{fill:url(#SVGID_00000147183742398320171210000006917336496889572993_);}
</style>
<linearGradient id="SVGID_1_" gradientUnits="userSpaceOnUse" x1="183.8703" y1="759.9979" x2="179.791" y2="768.1993" gradientTransform="matrix(1.9531 0 0 -1.9531 -267.9629 2677.0562)">
	<stop  offset="0" style="stop-color:#1A2BE0"/>
	<stop  offset="1" style="stop-color:#3C4FFD"/>
</linearGradient>
<path class="st0" d="M106.8,1161.2l2.2-1.8l-0.5-3.3c-0.4-2.3-0.6-3.3,0.4-5.4c3.2,9,3.7,18.8-0.3,27.6
	c-4.2,9.2-12.8,16.2-22.4,19.4c-0.6,0.2-1.2,0.4-1.9,0.5c-0.6,0.2-1.2,0.3-1.9,0.5c-0.6,0.1-1.3,0.3-1.9,0.4
	c-0.6,0.1-1.3,0.2-1.9,0.3c-0.6,0.1-1.3,0.1-1.9,0.2c-0.6,0-1.3,0.1-1.9,0.1c-0.6,0-1.3,0-1.9,0c-0.6,0-1.3-0.1-1.9-0.1
	c-0.6-0.1-1.3-0.1-1.9-0.2c-0.6-0.1-1.3-0.2-1.9-0.3c-0.6-0.1-1.3-0.3-1.9-0.4c-0.6-0.2-1.2-0.3-1.9-0.5c-0.6-0.2-1.2-0.4-1.8-0.6
	c-0.6-0.2-1.2-0.5-1.8-0.7c-0.6-0.3-1.2-0.5-1.8-0.8c-0.6-0.3-1.2-0.6-1.7-0.9c-1.2-0.7-2.4-1.4-3.6-2.1c0.2-0.3,0.4-0.6,0.6-0.8
	c2.3-2.5,32.8-19.4,37.3-20c3-0.4,5.9-1.1,8.8-1.7c1.9-3.5,3.5-5.7,6.6-8.2C106.2,1161.7,106.5,1161.5,106.8,1161.2z"/>
<path class="st1" d="M47,1141.1c8.1-8.6,17.1-13.1,29.1-13.2c9.3-0.1,18.6,3.1,25.1,9.9c3.1,3.3,6.3,8.5,7.6,12.9
	c-1,2.1-0.7,3.1-0.4,5.4l0.5,3.3l-2.2,1.8c-0.3,0.2-0.6,0.4-0.8,0.7c-3.1,2.5-4.7,4.8-6.6,8.2c-2.9,0.6-5.8,1.3-8.8,1.7
	c-4.5,0.7-35,17.6-37.3,20c-0.2,0.2-0.4,0.5-0.6,0.8c-3.7-3.2-6.3-6.5-8.7-10.7c-0.5-0.6-0.3-0.3-0.8-1.3c-5.4-10.6-4.1-21.1-0.8-32
	C42.8,1145.9,45,1142.9,47,1141.1z"/>
<path class="st2" d="M43.9,1182c1.9-0.6,1.2-0.6,2.9-0.6c19.3,0.3,34.8-13.3,52.6-19.7l1.1-2.5l1.1-0.1l0.1,3.7
	c1.8,0.1,3.5-0.9,5.1-1.5c-0.3,0.2-0.6,0.4-0.8,0.7c-3.1,2.5-4.7,4.8-6.6,8.2c-2.9,0.6-5.8,1.3-8.8,1.7c-4.5,0.7-35,17.6-37.3,20
	c-0.2,0.2-0.4,0.5-0.6,0.8C48.9,1189.6,46.4,1186.2,43.9,1182z"/>
<path class="st3" d="M47,1141.1c7.3-2.7,14.2-4.9,21.9-1.2c2.2,1,4,2.7,4.8,5c1.5,4.3-0.2,9.9-2.5,13.6c-3,4.7-8.2,8.4-13.7,9.5
	c-3,0.6-6.2,0.3-8.9-1.4c-2.5-1.7-5.1-4.5-5.4-7.5c-0.3-2.6-0.1-5.4-0.1-8c0-1.5,0-0.9-0.7-2.4C42.8,1145.9,45,1142.9,47,1141.1z"/>
<linearGradient id="SVGID_00000000903598779800052070000007356217527382237852_" gradientUnits="userSpaceOnUse" x1="236.2016" y1="662.9838" x2="206.7754" y2="704.9383" gradientTransform="matrix(1.9531 0 0 -1.9531 -267.9629 2677.0562)">
	<stop  offset="0" style="stop-color:#223BEB"/>
	<stop  offset="1" style="stop-color:#9DA9FF"/>
</linearGradient>
<path style="fill:url(#SVGID_00000000903598779800052070000007356217527382237852_);" d="M123.7,1312.9
	c7.2-10.7,18.6-17.5,31.1-20.2c13.4-2.8,27.8-0.5,39.3,7c9.6,6.3,17,16.7,19.1,28.2c0.1,0.4,0.1,0.8,0.1,1.2
	c3.6,12.5,1.6,26.3-4.8,37.6c-0.4,0.8-0.9,1.5-1.4,2.3c-0.5,0.7-1,1.5-1.5,2.2c-0.5,0.7-1.1,1.4-1.6,2.1c-0.6,0.7-1.1,1.4-1.7,2
	c-0.6,0.7-1.2,1.3-1.8,1.9c-0.6,0.6-1.3,1.2-1.9,1.8c-0.7,0.6-1.3,1.2-2,1.7c-0.7,0.6-1.4,1.1-2.1,1.6c-0.7,0.5-1.4,1-2.2,1.5
	c-0.7,0.5-1.5,1-2.3,1.4c-0.8,0.5-1.5,0.9-2.3,1.3c-0.8,0.4-1.6,0.8-2.4,1.2c-0.8,0.4-1.6,0.7-2.4,1c-0.8,0.3-1.7,0.6-2.5,0.9
	c-0.8,0.3-1.7,0.5-2.5,0.8c-0.9,0.2-1.7,0.5-2.6,0.7c-0.8,0.2-1.6,0.3-2.4,0.5c-0.8,0.1-1.6,0.3-2.5,0.4c-0.8,0.1-1.7,0.2-2.5,0.2
	c-0.8,0.1-1.7,0.1-2.5,0.1c-0.8,0-1.7,0-2.5,0c-0.8,0-1.7-0.1-2.5-0.1c-0.8-0.1-1.7-0.1-2.5-0.2c-0.8-0.1-1.6-0.2-2.5-0.4
	c-0.8-0.1-1.6-0.3-2.4-0.5c-0.8-0.2-1.6-0.4-2.4-0.6c-0.8-0.2-1.6-0.5-2.4-0.7c-0.8-0.3-1.6-0.5-2.3-0.8c-0.8-0.3-1.5-0.6-2.3-1
	c-0.8-0.3-1.5-0.7-2.3-1.1c-0.7-0.4-1.5-0.8-2.2-1.2c-0.7-0.4-1.4-0.8-2.1-1.3c-5.6-3.6-11.2-9.2-14.3-15.1
	c-4.6-4.9-6.8-13.2-7.4-19.8c-0.1-0.3-0.1-0.5-0.2-0.8C112.3,1336,116.4,1323.5,123.7,1312.9z"/>
<path class="st5" d="M115.1,1349.8c0.4-4.4-0.1-13,1.4-15.9l-1.5,0.2l1.6-0.1c0,0.3,0,0.7,0.1,1c0.3,3.6,1.5,10.2,4.2,12.9
	c1.2,1.2,3.9,1.7,5.5,2.2c1.7,0.5,3,1.1,4.5,2c11.6,2.5,20.3,0,30.7-5.1c2.5-1.2,4.6-2.6,7.4-3c0.3,1.4,0.7,2.6,1.3,3.9
	c0.2,0.5,0.4,0.9,0.6,1.4c-10.8,6.5-21.1,13.4-33.8,15.8l5,0.5l0.3,0.9c-5.1,3.8-11.5,3.3-17.6,3.6l-1.6-0.9l-0.7,0.4
	C117.8,1364.6,115.6,1356.4,115.1,1349.8z"/>
<path class="st6" d="M141.9,1309.1c3.3-2.4,8.5-4.5,12.7-3.8c4.3,0.7,8.2,4,10.4,7.6c0.4,0.6,0.7,1.3,1,1.9c0.3,0.7,0.6,1.3,0.8,2
	c0.2,0.7,0.4,1.4,0.6,2.1c0.2,0.7,0.3,1.4,0.4,2.1c0.1,0.7,0.1,1.4,0.2,2.2c0,0.7,0,1.4-0.1,2.2c-0.1,0.7-0.2,1.4-0.3,2.1
	c-0.1,0.7-0.3,1.4-0.5,2.1c-1.6,5.5-5,10.5-10.2,13.2c-6,3.1-22.1,2.2-24,3.4c-0.1,0.1-1.3,2.8-1.4,3c-0.3,0.8-0.6,2-0.8,2.8
	c-1.5-0.8-2.8-1.5-4.5-2c-1.6-0.5-4.3-1-5.5-2.2c-2.7-2.7-3.8-9.2-4.2-12.9c0-0.3-0.1-0.7-0.1-1l-1.6,0.1l1.5-0.2
	c-1.5,3-0.9,11.6-1.4,15.9c-0.1-0.3-0.1-0.5-0.2-0.8c-2.6-13,1.5-25.5,8.8-36.1c0.1,0.2,0.2,0.5,0.3,0.7c1.6,7-6.7,19,3.1,27
	c1.7,1.4,3.6,1.8,5.6,2.4c1.4-1.2,1.7-1.5,2.5-3c-3.7-2.2-6.1-4.8-8.5-8.3c-0.3-0.5-0.6-1-1-1.4c0,0-0.1-0.1-0.1-0.1
	c-0.3-2.2-0.4-3.5,0.2-5.6C127.9,1317.6,136,1312.5,141.9,1309.1z"/>
<path class="st3" d="M141.9,1309.1c6.1,1.1,12.1,2.6,15.6,8.2c1.5,2.3,1.8,5,1.2,7.6c-1.2,5.2-5.3,9.5-9.9,12.1
	c-4.1,2.4-9.1,2.8-13.7,3.1c-3.7-2.2-6.1-4.8-8.5-8.3c-0.3-0.5-0.6-1-1-1.4c0,0-0.1-0.1-0.1-0.1c-0.3-2.2-0.4-3.5,0.2-5.6
	C127.9,1317.6,136,1312.5,141.9,1309.1z"/>
<linearGradient id="SVGID_00000034086867595201584490000012822545628187482786_" gradientUnits="userSpaceOnUse" x1="931.7871" y1="666.6701" x2="874.5929" y2="709.5784" gradientTransform="matrix(1.9531 0 0 -1.9531 -267.9629 2677.0562)">
	<stop  offset="0" style="stop-color:#3045F0"/>
	<stop  offset="1" style="stop-color:#A9BDFF"/>
</linearGradient>
<path style="fill:url(#SVGID_00000034086867595201584490000012822545628187482786_);" d="M1429.2,1349.9c-3.8-9.5-3.5-21.7-1.3-31.6
	c3.9-17,14.8-33.3,29.6-42.6c12-7.5,33.6-14.8,47.8-11.5c17,1.1,33.2,10.9,44.2,23.6c12.1,13.9,18.8,32.1,17.3,50.7
	c-1.4,18.5-11.2,36.5-25.3,48.3c-15,12.6-34.5,17.2-53.8,15.3c-1.1-0.1-2.2-0.2-3.2-0.4c-1.1-0.2-2.2-0.3-3.2-0.6
	c-1.1-0.2-2.1-0.5-3.2-0.7c-1.1-0.3-2.1-0.6-3.1-0.9c-1-0.3-2.1-0.7-3.1-1c-1-0.4-2-0.8-3-1.2c-1-0.4-2-0.9-3-1.3
	c-1-0.5-2-1-2.9-1.5c-1-0.5-1.9-1.1-2.8-1.6c-0.9-0.6-1.9-1.1-2.8-1.8c-0.9-0.6-1.8-1.2-2.7-1.9s-1.7-1.3-2.6-2
	c-0.8-0.7-1.7-1.4-2.5-2.1c-0.8-0.7-1.6-1.5-2.4-2.3c-0.8-0.8-1.5-1.6-2.2-2.4c-0.7-0.8-1.4-1.6-2.1-2.5c-1.7-2-3.2-4.2-4.6-6.4
	c-1.4-2.2-2.7-4.5-3.9-6.9c-1.2-2.4-2.2-4.8-3-7.3C1430.5,1355.1,1429.8,1352.5,1429.2,1349.9z"/>
<path class="st3" d="M1447.6,1326.8c-2.9,0.6-3.4,0.7-6.2-0.3c-1.1-1.1-2.1-2.1-2.6-3.6c-2.1-5.6-0.3-13.1,1.9-18.3
	c3.1-7.3,10.2-15.8,17.8-18.6c3.7-1.4,6.5-0.7,9.9,1l-0.5,2.3l1.2,0.4l-0.3-1.1l2.3,4.6l-1,1.1l-0.4,0.9l1.9,2l-1,1.2
	c-0.3,0-0.7-0.1-1-0.1c-5.5-0.5-12.6,0.5-17,4.1c-2.1,1.7-3.2,3.9-3.4,6.6c-0.2,4.7,2.9,11.8,4.7,16.2c5.7-0.2,12.2-0.5,17.2,2.8
	c2.5,3.2,3.7,2.7,7.6,3.2c2.3-5.2,8.2-7,12.1-10.9c-1.6-1.7-1-0.8-1.8-2.9c0.3-0.2,0.6-0.4,0.9-0.6c4.8-3.4,1.5-7,2.6-11.9
	c0.1-0.4,0.2-0.7,0.4-1l-0.4-1c2,3.7,2.2,12.4,0.9,16.4c-1.6,5.3-7.1,11.7-12,14.3c-7.3,3.9-18.8,3.1-26.5,0.5
	c-2.8-0.9-5-1.2-7.4-3.1l0.1-3.9L1447.6,1326.8z"/>
<linearGradient id="SVGID_00000175298615028990739600000007242348805437155210_" gradientUnits="userSpaceOnUse" x1="801.4757" y1="728.6156" x2="217.7243" y2="1168.4894" gradientTransform="matrix(1.9531 0 0 -1.9531 -267.9629 2677.0562)">
	<stop  offset="0" style="stop-color:#093187"/>
	<stop  offset="1" style="stop-color:#79D9FF"/>
</linearGradient>
<path style="fill:url(#SVGID_00000175298615028990739600000007242348805437155210_);" d="M393.6,1349.7c-0.2-0.1-0.3-0.1-0.5-0.2
	c-11.8-7.1-23-15.9-34.3-23.9c-128.1-91.3-226.2-232.9-269.6-383.7c-1.6-5.5-3.2-11-4.7-16.6c-1.5-5.5-2.9-11.1-4.3-16.7
	c-1.4-5.6-2.6-11.2-3.8-16.8c-1.2-5.6-2.4-11.2-3.4-16.9c-1.1-5.6-2.1-11.3-3-17c-0.9-5.7-1.8-11.3-2.6-17
	c-0.8-5.7-1.5-11.4-2.2-17.1c-0.7-5.7-1.2-11.4-1.7-17.1c-0.5-5.7-1-11.4-1.3-17.2c-0.4-5.7-0.7-11.5-0.9-17.2
	c-0.2-5.7-0.4-11.5-0.5-17.2c-0.1-5.7-0.1-11.5,0-17.2c0.1-5.7,0.2-11.5,0.4-17.2c0.2-5.7,0.5-11.5,0.8-17.2
	c0.3-5.7,0.7-11.5,1.2-17.2c0.5-5.7,1-11.4,1.7-17.1c0.6-5.7,1.3-11.4,2.1-17.1c0.8-5.7,1.6-11.4,2.5-17c0.9-5.7,1.9-11.3,2.9-17
	c1-5.6,2.2-11.3,3.3-16.9c1.2-5.6,2.4-11.2,3.8-16.8c1.3-5.6,2.7-11.2,4.2-16.7c1.5-5.6,3-11.1,4.6-16.6c1.6-5.5,3.3-11,5-16.5
	c1.7-5.5,3.5-10.9,5.4-16.4c1.9-5.4,3.8-10.8,5.8-16.2c2-5.4,4.1-10.7,6.2-16.1c2.1-5.3,4.3-10.6,6.6-15.9c2.3-5.3,4.6-10.5,7-15.7
	c2.4-5.2,4.9-10.4,7.4-15.6c2.5-5.2,5.1-10.3,7.8-15.4c2.6-5.1,5.4-10.2,8.1-15.2l0.1,0.9c1.8,20.9,0.6,42.5,0.4,63.4
	c-0.3,32.2-0.5,64.4-0.5,96.6c0,20.9-2,44,3.3,64.3c0.6,2.1,1.2,4.1,1.9,6.1c0.7,2,1.5,4,2.4,6c0.9,2,1.8,3.9,2.8,5.8
	c1,1.9,2.1,3.7,3.2,5.6c1.1,1.8,2.3,3.6,3.6,5.3c1.3,1.7,2.6,3.4,4,5c1.4,1.6,2.9,3.2,4.4,4.7c1.5,1.5,3.1,3,4.7,4.4
	c9.2,7.9,22.8,16,35.1,16.8c8.1,2.8,17.2,2.5,25.6,2.5c-0.6,41.5,0.2,83,0.5,124.4l0.2,159.8l-0.1,97c0,18.8-1.6,39.2,1.6,57.7
	c4.2,23.7,14.7,46.2,31.5,63.6c21.2,22,45.3,31.1,75.4,31.7l512,0.2c98.7-0.2,197.6,1.4,296.2-0.4c16.1,0.1,32.5-1.7,48.6-2.4
	c19.2-0.8,40.1,0.4,59-3.3c2-0.4,3.9-0.8,5.8-1.4c1.9-0.5,3.8-1.2,5.7-1.9c1.9-0.7,3.7-1.5,5.5-2.4c1.8-0.9,3.6-1.8,5.3-2.8
	c17.8-10.5,32.3-28,37.4-48.2c4.8-18.9,1.9-60.2,1.9-80.9l0.2-133.7l0.1-291.8c-0.1-26.4-0.1-52.7,0.1-79.1
	c0.1-17.5,1-35.4-0.4-52.9c-1.4-16.7-7.7-30.8-16.1-45.2c12.3,8,23.1,20.2,33.8,30.4c19.7,18.6,39.3,37.4,58.6,56.4
	c15.5,15.2,32.3,29.6,47.1,45.4c10,10.6,17.9,22.6,26.9,34c5.2,6.5,11.4,12.2,16.3,18.9c2,2.7,3.6,5.4,4.6,8.6
	c2.1,37.7,3.1,75.3,0.2,113c-12.2,159.5-76.3,319.5-183.3,439.2c-130.2,145.6-300.5,226.5-495.1,237.2c-24.2,1.5-48.4,1.4-72.6,0
	c-17.8-0.1-36.2-2.7-53.8-5.1c-59.8-8.1-115.6-22.6-171.4-45.5c-11.3-4.7-23.3-9-34-15C454.8,1388.6,421,1369,393.6,1349.7z"/>
<path class="st9" d="M393.6,1349.7c2.9-0.1,4,0.4,6.4,1.9c2.7-0.3,4.3-0.8,6.8-1.9c3.7-1.7,6.2-1.4,9.9,0.2c0.4,0.2,0.9,0.4,1.3,0.7
	c-1.3,2.5-1.4,3.4-3.9,4.8c-3.2-1.1-3.6-1.7-6.9-0.3l-0.3,1.3c11.4,9.5,77.4,41.8,78.3,43c0.4,0.5,0.4,1.2,0.6,1.7
	C454.8,1388.6,421,1369,393.6,1349.7z"/>
<path class="st9" d="M394.6,1265.1c12.1,8.6,24.9,17.4,34.4,28.9c3.9,4.3,11.4,13.9,12.5,19.6c-5-0.8-12-9.6-15.1-13.5
	c-0.1-0.1-0.1-0.1-0.2-0.2c-6.7-8.2-15.2-14.1-23.1-21.1C398.6,1274.8,395,1271.4,394.6,1265.1z"/>
<linearGradient id="SVGID_00000155131804365399068400000005164426532153515694_" gradientUnits="userSpaceOnUse" x1="933.5113" y1="1088.7886" x2="357.6977" y2="1368.0688" gradientTransform="matrix(1.9531 0 0 -1.9531 -267.9629 2677.0562)">
	<stop  offset="0" style="stop-color:#1663DA"/>
	<stop  offset="1" style="stop-color:#78D9FF"/>
</linearGradient>
<path style="fill:url(#SVGID_00000155131804365399068400000005164426532153515694_);" d="M422.7,130.3c3.4-4.1,17.5-10.8,22.7-13.8
	c7.7-4.4,15.5-8.7,23.3-12.8c7.9-4.1,15.8-8.1,23.8-12c8-3.8,16.1-7.5,24.2-11.1c8.1-3.5,16.3-6.9,24.6-10.2
	c8.3-3.2,16.6-6.3,25-9.3c8.4-2.9,16.8-5.7,25.3-8.4c8.5-2.6,17-5.1,25.6-7.4s17.2-4.5,25.8-6.5c11.5-2.6,23.1-5,34.8-6.9
	c11.7-2,23.4-3.7,35.1-5c11.8-1.3,23.5-2.3,35.3-3c11.8-0.7,23.6-1,35.5-1.1c105.1,0.2,247.9,31.2,337.5,87.2l1.7-0.3
	c11.2-10.9,22.4-21.6,35.7-30.1c4.2-2.7,9.5-4.7,14.1-6.7c23.1-10.3,45.9-16.1,71.4-15.7c40.2,0.6,83.6,17.9,111.6,47.1
	c7.7,8.1,15.8,17.6,21,27.6c12.3,17.7,25.2,51.3,23.6,73c2.1,43.4-10.2,82.7-36.9,116.7c57.7,83.1,97.9,161.9,119.3,261.6
	c6.8,31.4,11.5,61.9,13.5,94c-0.9-3.2-2.6-5.9-4.6-8.6c-4.9-6.7-11.1-12.4-16.3-18.9c-9-11.4-17-23.4-26.9-34
	c-14.8-15.9-31.6-30.2-47.1-45.4c-19.3-19-38.8-37.8-58.6-56.4c-10.7-10.2-21.4-22.4-33.8-30.4c-1.8-1.8-3.5-3.6-5.3-5.5
	c-0.8-1.1-1.5-2.1-2.3-3.2c-26-31.5-54.8-31.4-92.3-31.5c-25.2-0.1-51.3,1.3-76.4-1.1c-11.8,0.8-24.2,0-36-0.1l-72.6,0
	c-81.1-0.5-162.2-0.4-243.3,0.3c-5.4,0.1-10.7,0-16.1-0.1c-20.5,1.2-41.2,0.9-61.8,1c-25.8-1.7-54.3-0.3-80.4-0.5
	c-10-0.8-20.1-0.7-30.1-0.8l-0.5-80.1c0-16.3,1.5-33.7-0.7-49.9c-1.2-8.4-4.1-17.1-6.7-25.1c-1.9-5.4-5-10.7-7.6-15.8
	c-4-6.9-8.5-13.3-14.1-19.1c-32.2-32.7-73.7-29.7-115.6-29.6l-64.8-0.3c-13.4,0.8-27.3-0.2-40.8-0.1c-14.1,0.1-29.6,1.5-43.5-0.2
	c11.5-8.8,22.3-18.6,33.6-27.7c19.5-15.7,39.6-30.5,60.4-44.5C401.7,143,411.8,135.6,422.7,130.3z"/>
<path class="st9" d="M1198.7,375.7c4.3,2.1,9.1,5.9,13.5,7.4c8.3,8.7,37.6,26,49.2,30.7c0.6,0.2,1.2,0.5,1.8,0.7
	c-9.1,1.8-36.8-24.5-46.9-24.3c-1.7,1.3-3.2,2.2-5.2,3.1c-2-0.5-3.2-1.2-4.7-2.6c-4.2-4-7.1-7.7-7.4-13.6L1198.7,375.7z"/>
<path class="st11" d="M1338.4,336.1c32.4-24.6,52.5-61.4,58-101.5c1-7.4,0.8-23.7,3.7-29.5c2.1,43.4-10.2,82.7-36.9,116.7
	c0.1,3.8-3,6.7-5.5,9.4c-12.9,13.8-32.4,29.6-50.3,36.2l-1.8-0.5l2.8-3.6c-7.6,0.9-15.5,6.6-23.3,8.7c-23.4,6.3-51,7.6-74.9,3.7
	c-2.1-0.3-6.4-0.4-8.1-1.5l-1.6,0.1c4.1,2.8,8.2,5.5,12.3,8.2l-0.7,0.7c-4.4-1.5-9.3-5.3-13.5-7.4c-9-6.1-35.4-13.1-40.3-21.7
	c35.8,20.7,62.7,24.6,103.5,19.8c4.3-3,16.7-4.6,22.5-6.9c15.5-6.1,31-15.4,44.3-25.3C1332.3,340.5,1335.4,338.1,1338.4,336.1z"/>
<path class="st12" d="M1328.8,341.6c3.5-1.1,6.6-3.5,9.6-5.6c-16.1,20.9-41.8,34-67.9,37.4c-2.7,0.4-5.8,0.6-8.5,0.4
	c4.3-3,16.7-4.6,22.5-6.9C1299.9,360.9,1315.5,351.5,1328.8,341.6z"/>
<path class="st9" d="M576.7,271.3l1.4,0.6c13.2,5.2,27.8,5.2,40.9,10.3c54.1,21,100.9,56.3,133.1,105c4.5,6.8,10.5,14.6,13.9,22
	c5.5,9.2,13.5,20.8,14.3,31.7l0.1,1.5c-5.4,0.1-10.7,0-16.1-0.1c4-1.4,8.1-0.8,12.2-1.5c-3.5-8.7-4-21.6-11.9-27.6
	c-9.1-16.9-34.2-44.3-48.6-58.1c-5.8-5.6-12.6-10.2-18.9-15.2c-28.9-23-53.6-39.1-89.2-50.2c-6.1-1.9-13.7-4.6-20.2-4.4
	c-1.4,1.3-0.9,1.1-2.4,1.6c-0.3,0.1-0.6,0.2-1,0.3C582.4,281.8,579.2,276.5,576.7,271.3z"/>
<path class="st13" d="M297.8,222c11.5-8.8,22.3-18.6,33.6-27.7c19.5-15.7,39.6-30.5,60.4-44.5c9.9-6.8,20.1-14.2,30.9-19.5
	c-0.4,0.4-0.7,0.9-1.1,1.3c-2.6,3-6.9,5.2-10.2,7.4c-13.4,8.9-26.9,17.6-40,27.1c-9,6.5-18.1,15.2-28,20.2l-0.7,1.3
	c5.6,2.4,24.4,1.2,30.9-0.1c7.3-1.5,16.5-9,23.6-3.4c2.5,7.3,3.6,14.1,3.7,21.7c3,1.5,7.2,1.1,9.1,3.7c-1,1.4-0.3,0.9-2.1,1.4
	c-3.3,0.9-11.4,3.9-13.2,6.6c-0.2,0.3-0.3,0.7-0.5,1l-3.2-0.1l-0.8,0.8l1,2c-3,0.2-6.2,0.2-9.1,1.2c-13.4,0.8-27.3-0.2-40.8-0.1
	C327.2,222.3,311.8,223.7,297.8,222z"/>
<linearGradient id="SVGID_00000049938116064345374790000011171674798205786556_" gradientUnits="userSpaceOnUse" x1="446.6361" y1="1140.6809" x2="496.1049" y2="1196.0386" gradientTransform="matrix(1.9531 0 0 -1.9531 -267.9629 2677.0562)">
	<stop  offset="0" style="stop-color:#1750A9"/>
	<stop  offset="1" style="stop-color:#478CDD"/>
</linearGradient>
<path style="fill:url(#SVGID_00000049938116064345374790000011171674798205786556_);" d="M584.2,287.2c0.3-0.1,0.6-0.2,1-0.3
	c1.6-0.5,1-0.3,2.4-1.6c6.5-0.2,14.1,2.5,20.2,4.4c35.7,11.1,60.3,27.2,89.2,50.2c6.3,5,13.1,9.6,18.9,15.2
	c14.4,13.9,39.5,41.2,48.6,58.1c8,6,8.5,19,11.9,27.6c-4.1,0.7-8.2,0.1-12.2,1.5c-20.5,1.2-41.2,0.9-61.8,1
	c-25.8-1.7-54.3-0.3-80.4-0.5c-10-0.8-20.1-0.7-30.1-0.8l-0.5-80.1c0-16.3,1.5-33.7-0.7-49.9C589.8,303.9,586.8,295.2,584.2,287.2z"
	/>
<linearGradient id="SVGID_00000076588577984896582210000004771018950731810714_" gradientUnits="userSpaceOnUse" x1="839.0906" y1="1226.5397" x2="698.9144" y2="1296.2035" gradientTransform="matrix(1.9531 0 0 -1.9531 -267.9629 2677.0562)">
	<stop  offset="0" style="stop-color:#4E66F0"/>
	<stop  offset="1" style="stop-color:#8AC7FF"/>
</linearGradient>
<path style="fill:url(#SVGID_00000076588577984896582210000004771018950731810714_);" d="M1121,110.1l1.7-0.3
	c11.2-10.9,22.4-21.6,35.7-30.1c4.2-2.7,9.5-4.7,14.1-6.7c23.1-10.3,45.9-16.1,71.4-15.7c40.2,0.6,83.6,17.9,111.6,47.1
	c7.7,8.1,15.8,17.6,21,27.6c12.3,17.7,25.2,51.3,23.6,73c-2.9,5.8-2.7,22.2-3.7,29.5c-5.5,40.1-25.6,76.9-58,101.5
	c-3,2-6.1,4.4-9.6,5.6c-13.3,9.9-28.9,19.2-44.3,25.3c-5.8,2.3-18.2,3.9-22.5,6.9c-40.9,4.7-67.7,0.8-103.5-19.8
	c-2.9-3.3-9.7-6.7-13.4-9.5c-9.5-7.1-18.8-14.9-26.7-23.7c-26.8-29.5-41.2-73.2-39.2-112.7C1080.9,174.1,1095.1,133.3,1121,110.1z"
	/>
<path class="st2" d="M1376.4,132c12.3,17.7,25.2,51.3,23.6,73c-2.9,5.8-2.7,22.2-3.7,29.5c-5.5,40.1-25.6,76.9-58,101.5
	c-3,2-6.1,4.4-9.6,5.6c4.6-5.5,11.1-8.9,16-14.4c12.4-14,30.3-48.1,34.7-66.4c3.1-13.1,6.2-27.3,7.2-40.7c1-13.4-2.5-65.8-6.2-77.5
	c-0.8-2.6-2.5-5.1-4-7.4l-0.9-1.4L1376.4,132z"/>
<linearGradient id="SVGID_00000055704090233863287150000002178257268252002234_" gradientUnits="userSpaceOnUse" x1="827.218" y1="1220.5594" x2="716.9003" y2="1300.6873" gradientTransform="matrix(1.9531 0 0 -1.9531 -267.9629 2677.0562)">
	<stop  offset="0" style="stop-color:#598EFF"/>
	<stop  offset="1" style="stop-color:#9CE1FC"/>
</linearGradient>
<path style="fill:url(#SVGID_00000055704090233863287150000002178257268252002234_);" d="M1320.5,323.7
	c-10.1,11.8-31.6,19.4-46.2,23.2c-2.1,0.6-4.3,1.1-6.4,1.5c-2.2,0.4-4.3,0.8-6.5,1.2c-2.2,0.3-4.4,0.6-6.6,0.9
	c-2.2,0.2-4.4,0.4-6.6,0.5c-2.2,0.1-4.4,0.2-6.6,0.2c-2.2,0-4.4,0-6.6-0.1c-2.2-0.1-4.4-0.2-6.6-0.4c-2.2-0.2-4.4-0.4-6.6-0.8
	c-2.2-0.3-4.4-0.7-6.5-1.1c-2.2-0.4-4.3-0.9-6.5-1.4c-2.1-0.5-4.3-1.1-6.4-1.7c-2.1-0.6-4.2-1.3-6.3-2c-2.1-0.7-4.1-1.5-6.2-2.3
	c-2-0.8-4.1-1.7-6.1-2.6c-2-0.9-4-1.9-5.9-2.9c-2-1-3.9-2.1-5.8-3.2c-31-18.5-53-51.6-61.5-86.4c-8.6-35.3-3.8-70.7,15.3-101.7
	c18.4-29.9,49.1-53.5,83.5-61.7c37.7-9,70.9-2.6,103.7,17.9c29.5,18.3,50.7,49.9,58.1,83.6c7.6,34.4,1.8,72.1-17.2,102
	c-3.1,7.8-24.9,34.6-32.2,37.3C1321.1,323.9,1321.2,323.9,1320.5,323.7z"/>
<path class="st1" d="M1318,260.6l1.1-1.3c1.8,0.5,1.9,1.3,2.7,2.8c1.5,2.7,1.9,5.1,1.4,8.2c0.1,2.1-0.2,6.8,1.2,8.2
	c2.1-2.9,4.3-7.8,7.3-9.4c0.6,0.6,1.3,1.3,1.8,2c-1.7,2.9-2.9,3.9-2,7.4c1.8,6.8,8.2,15.2,12.7,20.4c2.9-4.2,5.8-9.3,9.8-12.5
	c-3.1,7.8-24.9,34.6-32.2,37.3c-0.9,0.3-0.8,0.3-1.5,0.1l5-4.8c-8.9,0-13.8-6.1-21.9-7.4c-4.2-0.7-5.5,0.6-8.8,2.8l-5.1-1.2
	c-7.8,8.7-31.3,11.1-42.3,11.7c-9.3,0.5-18.4-0.1-27.6-1.1c-1.8-11.2-18-13-21.9-23.5c34.1,2.7,30.2-17.2,55.6-24.9
	c5.2,7.2,13.7,20.2,23,21.8c3.9,0.7,8.2-1.5,11.4-3.4C1297.5,287.5,1315.4,271.9,1318,260.6z"/>
<linearGradient id="SVGID_00000002345243793586708090000004272590107613916801_" gradientUnits="userSpaceOnUse" x1="813.0706" y1="1226.0461" x2="729.9998" y2="1296.9767" gradientTransform="matrix(1.9531 0 0 -1.9531 -267.9629 2677.0562)">
	<stop  offset="0" style="stop-color:#536EFD"/>
	<stop  offset="1" style="stop-color:#80C3FE"/>
</linearGradient>
<path style="fill:url(#SVGID_00000002345243793586708090000004272590107613916801_);" d="M1219.7,323.6c-5-0.6-9.9-1.5-14.7-3.1
	c-27.3-9.2-51.3-35.9-63.6-61.1c-12.7-25.9-14-54.6-4.5-81.9c10.1-29.2,33.2-51.2,60.6-64.5c23.1-11.2,51.9-13.8,76.3-5.2
	c27.6,9.8,51.2,31.6,63.7,58c12.2,26,15.4,51.5,6.3,79c-2.9,8.9-7,17.3-10.1,26.1c-0.4-0.7-1.2-1.4-1.8-2c-3.1,1.6-5.3,6.5-7.3,9.4
	c-1.4-1.4-1-6.1-1.2-8.2c0.4-3.1,0-5.5-1.4-8.2c-0.8-1.5-0.9-2.3-2.7-2.8l-1.1,1.3c-2.6,11.3-20.5,26.9-30.3,33
	c-3.2,2-7.5,4.1-11.4,3.4c-9.3-1.6-17.8-14.6-23-21.8c-25.3,7.7-21.5,27.6-55.6,24.9C1201.8,310.6,1217.9,312.5,1219.7,323.6z"/>
<path class="st18" d="M1156.8,177.3c4.8-8.4,12.1-16.5,18.7-23.4c5.2-5.5,11.6-10.8,19.6-10.7c12.4,0.2,23,13.6,30.9,22
	c2.4,3.3,4.8,6.5,6.9,9.9c1.3,2.5,2.3,5.4,3.7,7.8c-2.4,0.4-4,1.2-6.1,2.3c-2.5,0.8-4.9,1.5-7.2,2.8c-7.3,9.6-18.9,15-25.7,25.4
	c-4.1-0.5-7.4-1.7-11.2-3.2C1176.6,206,1162,186.5,1156.8,177.3z"/>
<path class="st19" d="M1226,165.1c2.4,3.3,4.8,6.5,6.9,9.9c1.3,2.5,2.3,5.4,3.7,7.8c-2.4,0.4-4,1.2-6.1,2.3
	c-2.5,0.8-4.9,1.5-7.2,2.8c-7.3,9.6-18.9,15-25.7,25.4c-4.1-0.5-7.4-1.7-11.2-3.2C1200.3,198.8,1218.5,181.4,1226,165.1z"/>
<path class="st18" d="M1194.3,224.8c10.4,2.4,32.4,27.6,42.7,35.4c4.1,3.1,10.1,4.1,13.5,7.8l0.3,2.6l2.6,4.7
	c-25.3,7.7-21.5,27.6-55.6,24.9l-0.1-1.6l-4.7-2.8c-8.7-6.1-17.6-14.5-23.8-23.1c-3-4.2-5.3-9.3-4.2-14.5
	c2.4-11.2,21.1-21.8,29.8-27.8C1195,228.7,1194.5,226.4,1194.3,224.8z"/>
<path class="st19" d="M1194.3,224.8c10.4,2.4,32.4,27.6,42.7,35.4c4.1,3.1,10.1,4.1,13.5,7.8l0.3,2.6l2.6,4.7
	c-25.3,7.7-21.5,27.6-55.6,24.9l-0.1-1.6l-4.7-2.8c4.9-8.8,17.5-13.2,23.7-22.1c3-4.2,4.9-9.5,6.9-14.2
	c-9.5-9.8-18.7-19.9-28.7-29.2C1195,228.7,1194.5,226.4,1194.3,224.8z"/>
<path class="st12" d="M1231.3,266.6c6.8,0.4,13.1,1.9,19.5,4l2.6,4.7c-25.3,7.7-21.5,27.6-55.6,24.9l-0.1-1.6
	C1211.3,291.3,1221.6,278.2,1231.3,266.6z"/>
<path class="st18" d="M1281.5,142.3c11.3,3.1,21.6,12.3,28.5,21.7c1.5,1.4,3,3.2,4.7,4.4c4.1,1.3,7.3,6.7,9.3,10.3
	c2.8,5.3,4.3,11.4,2.2,17.2c-4.1,11.7-16.9,16.8-24.4,25.7c-2.1,2.4-5.1,10.2-7.5,11.2c-1.2,0.5-2.3,0.7-3.6,0.9
	c8,0.7,14,3.2,19.4,9.4c4.7,5.4,7,10.5,8.1,17.4c-2.6,11.3-20.5,26.9-30.3,33c-3.2,2-7.5,4.1-11.4,3.4c-9.3-1.6-17.8-14.6-23-21.8
	l-2.6-4.7l-0.3-2.6c-3.4-3.7-9.4-4.8-13.5-7.8c-10.4-7.8-32.3-33-42.7-35.4c-0.2-2.9,0.7-5.3,1.6-8l1.7-3.5
	c6.8-10.3,18.4-15.8,25.7-25.4c2.3-1.2,4.7-2,7.2-2.8c2.1-1.1,3.7-1.9,6.1-2.3C1252.1,169.5,1260.7,147.8,1281.5,142.3z"/>
<path class="st19" d="M1284.3,236.3c-1.4,0.7-2.2,0.9-3.8,1.1c-4.2-5.9-5.1-24.5-10.2-34c-5.7-10.6-15.7-16-23.1-25l0.5-1.5
	c1.3-0.9,2-1.7,3.7-1.7c8.7,0,24.4,20.4,30.1,26.9c-1.5,2-3,3.2-2.8,5.9c0,0.6,0.6,3.1,0.9,3.7
	C1281.1,219.4,1281.3,229.2,1284.3,236.3z"/>
<path class="st12" d="M1309.9,164c1.5,1.4,3,3.2,4.7,4.4c4.1,1.3,7.3,6.7,9.3,10.3c2.8,5.3,4.3,11.4,2.2,17.2
	c-4.1,11.7-16.9,16.8-24.4,25.7c-2.1,2.4-5.1,10.2-7.5,11.2c-1.2,0.5-2.3,0.7-3.6,0.9l-6.3,2.6c-3.1-7.2-3.3-16.9-4.6-24.7
	c-0.4-0.6-0.9-3.1-0.9-3.7c-0.2-2.7,1.3-3.9,2.8-5.9c3,3.2,5.6,6.8,10.2,7.6c4.3-9.6,15.3-14.3,19.7-23.4
	C1315.2,178.7,1312.4,171.4,1309.9,164z"/>
<path class="st19" d="M1281.6,202c3,3.2,5.6,6.8,10.2,7.6c-0.5,0.1-1,0.2-1.6,0.2c-2.6,0.3-5.1-0.1-7.6-0.5
	c-1.8,0.8-1.7,0.4-2.9,2.3c-0.4-0.6-0.9-3.1-0.9-3.7C1278.6,205.2,1280.1,204,1281.6,202z"/>
<path class="st19" d="M1309.9,164c1.5,1.4,3,3.2,4.7,4.4c2.2,3.5,6.3,8.7,5.4,13c-1.4,7-19.2,23.8-25.7,27.1
	c-1.4,0.7-1.3,0.6-2.5,1.1c4.3-9.6,15.3-14.3,19.7-23.4C1315.2,178.7,1312.4,171.4,1309.9,164z"/>
<path class="st18" d="M297.8,222c13.9,1.8,29.4,0.3,43.5,0.2c13.5-0.1,27.4,0.9,40.8,0.1l64.8,0.3c41.9-0.1,83.4-3.1,115.6,29.6
	c5.7,5.7,10.1,12.1,14.1,19.1c2.5,5.1,5.7,10.5,7.6,15.8c2.6,8.1,5.5,16.8,6.7,25.1c2.2,16.1,0.8,33.6,0.7,49.9l0.5,80.1
	c10,0.1,20.1,0,30.1,0.8c26.1,0.2,54.6-1.3,80.4,0.5c20.5-0.1,41.2,0.2,61.8-1c5.4,0.1,10.7,0.2,16.1,0.1
	c81.1-0.6,162.2-0.7,243.3-0.3l72.6,0c11.8,0,24.3,0.9,36,0.1c25.1,2.4,51.1,1.1,76.4,1.1c37.6,0.1,66.3,0,92.3,31.5
	c0.8,1,1.6,2.1,2.3,3.2c1.7,1.9,3.5,3.7,5.3,5.5c8.4,14.3,14.7,28.4,16.1,45.2c1.4,17.5,0.5,35.4,0.4,52.9
	c-0.2,26.4-0.2,52.7-0.1,79.1l-0.1,291.8l-0.2,133.7c0.1,20.6,3,62-1.9,80.9c-5.1,20.2-19.6,37.7-37.4,48.2c-1.7,1-3.5,2-5.3,2.8
	c-1.8,0.9-3.7,1.7-5.5,2.4c-1.9,0.7-3.8,1.3-5.7,1.9c-1.9,0.5-3.9,1-5.8,1.4c-18.8,3.6-39.8,2.5-59,3.3c-16.1,0.7-32.5,2.5-48.6,2.4
	c-98.7,1.7-197.5,0.2-296.2,0.4l-512-0.2c-30.1-0.6-54.2-9.7-75.4-31.7c-16.8-17.4-27.3-39.8-31.5-63.6c-3.2-18.5-1.6-38.9-1.6-57.7
	l0.1-97l-0.2-159.8c-0.3-41.5-1.1-83-0.5-124.4c-8.4,0-17.6,0.3-25.6-2.5c-12.3-0.9-25.9-9-35.1-16.8c-1.6-1.4-3.2-2.9-4.7-4.4
	c-1.5-1.5-3-3.1-4.4-4.7c-1.4-1.6-2.7-3.3-4-5c-1.3-1.7-2.5-3.5-3.6-5.3c-1.1-1.8-2.2-3.7-3.2-5.6c-1-1.9-1.9-3.8-2.8-5.8
	c-0.9-2-1.7-3.9-2.4-6c-0.7-2-1.4-4.1-1.9-6.1c-5.3-20.3-3.3-43.4-3.3-64.3c0-32.2,0.1-64.4,0.5-96.6c0.2-21,1.4-42.5-0.4-63.4
	l-0.1-0.9c0.2-21.3,0.1-42.6-0.2-63.9c-0.3-37-2.5-66.2,25.6-94.5C206.2,215.6,254.3,222.2,297.8,222z"/>
<path class="st6" d="M764.6,765.2c4.7-2.1,9.9-1.8,15-1.7l-1.1,1.3c-1.2,1.4-2.5,2.4-4,3.4l1.3,3C772.2,769,767.1,768.5,764.6,765.2
	z"/>
<path class="st1" d="M815.4,840.9c9.5,0,19.1-0.4,28.5,0.1c-3.2,0.5-6.5,0.7-9.4,2.4c2.7,1.5,6.1,1.2,9.1,1.5
	c-6.3,0.8-12.6,1-19,1.1c-3.8-0.3-7.4,0.1-11-1.3l-0.5-1.7L815.4,840.9z"/>
<path class="st20" d="M795.3,840.8l20.1,0l-2.1,2.1l0.5,1.7c3.6,1.5,7.2,1.1,11,1.3c-5.5,1.4-11.5,1.3-17.1,1.7l-7.3-0.4
	C797.4,845.5,796.6,844,795.3,840.8z"/>
<path class="st5" d="M779.6,763.5c6.1,1.8,9.4,4.1,13.6,8.8c-3.2,1.7-5.9,5-8.5,7.6c-2.9-3-5.9-5.8-8.9-8.6l-1.3-3
	c1.5-1,2.8-2,4-3.4L779.6,763.5z"/>
<path class="st12" d="M844,841c11-0.2,22.7-1.1,33.6-0.3l7.6,0.6c10.6-0.2,21.2-0.7,31.8,0l1.7,1.8l-1-1.5l1.3,0.8l-1,1
	c-9.4-0.1-23-1.9-31.9,1c-5.5,0.3-11.1,0-16.6,0c-8.5,0.5-17.2,0.2-25.7,0.4c-3-0.3-6.5,0-9.1-1.5C837.5,841.6,840.7,841.4,844,841z
	"/>
<path class="st20" d="M1105.9,738.8c2.7,1.2,5.6,2.4,8.1,3.9c4.6,2.8,7.2,7,8.3,12.2c2.8,13.4,3.7,68.1-3.1,78l-1.7-1
	c-7.9,7.3-11.7,8.3-22.4,7.9c-4.2-0.2-8.4-0.3-12.6-0.8c8.4-0.1,18,0.8,24.4-5.7c7.6-7.6,8.7-18.9,9-29.1
	c0.5-16.9,3.1-42.4-4.1-57.9C1110.5,743.4,1108.1,741.1,1105.9,738.8z"/>
<path class="st6" d="M688.5,803c-0.8-0.8-0.5-0.4-1.2-1.6c-3.5-6.1-5.3-12.6-3.3-19.6c0.3-0.9,0.6-1.8,0.9-2.7
	c0.3-0.9,0.7-1.7,1.2-2.5c0.4-0.8,0.9-1.6,1.4-2.4c0.5-0.8,1.1-1.5,1.7-2.3c0.6-0.7,1.2-1.4,1.9-2.1c0.7-0.7,1.4-1.3,2.1-1.9
	c0.7-0.6,1.5-1.1,2.3-1.7s1.6-1,2.4-1.4c6-3.2,12.6-3.9,19.1-1.9c-0.1,0.4-0.2,0.8-0.2,1.2c-1.5,10.7,3.9,21.8-6.9,30.1
	C703.4,799.1,693.9,798.4,688.5,803z"/>
<path class="st18" d="M703.7,771.1c2.7,1.8,6.4,3.7,7.5,6.8c-1.4,2.3-2.2,2.6-4.6,3.9c-2.1-3.3-3.7-4.7-7.3-6.3
	c-0.3-0.2-0.7-0.3-1-0.4C699.1,773,701.8,772.2,703.7,771.1z"/>
<path class="st5" d="M716.8,763c6.7,3,12.3,8,15,15c0.3,0.9,0.6,1.7,0.9,2.6c0.2,0.9,0.4,1.8,0.6,2.7c0.1,0.9,0.3,1.8,0.3,2.8
	c0.1,0.9,0.1,1.9,0,2.8c0,0.9-0.1,1.9-0.3,2.8c-0.1,0.9-0.3,1.8-0.5,2.7c-0.2,0.9-0.5,1.8-0.8,2.7c-0.3,0.9-0.7,1.7-1.1,2.6
	c-0.4,0.8-0.8,1.6-1.3,2.4c-0.5,0.8-1,1.5-1.5,2.2c-0.5,0.7-1.1,1.4-1.7,2.1c-0.6,0.7-1.3,1.3-2,1.9c-0.7,0.6-1.4,1.1-2.1,1.6
	c-0.7,0.5-1.5,1-2.3,1.4c-0.8,0.4-1.6,0.8-2.4,1.2c-0.8,0.3-1.7,0.6-2.5,0.9c-6.6,1.9-13.2,0.6-19-3c-3-1.9-5.6-4.4-7.6-7.3
	c5.4-4.6,14.9-3.9,21.2-8.8c10.7-8.3,5.4-19.4,6.9-30.1C716.6,763.8,716.7,763.4,716.8,763z"/>
<linearGradient id="SVGID_00000088096642857740320890000003816446947463661486_" gradientUnits="userSpaceOnUse" x1="647.4985" y1="935.0118" x2="648.8443" y2="946.1569" gradientTransform="matrix(1.9531 0 0 -1.9531 -267.9629 2677.0562)">
	<stop  offset="0" style="stop-color:#5C53A7"/>
	<stop  offset="1" style="stop-color:#7879C3"/>
</linearGradient>
<path style="fill:url(#SVGID_00000088096642857740320890000003816446947463661486_);" d="M1082.5,839c4.1,0.5,8.4,0.6,12.6,0.8
	c10.8,0.4,14.5-0.6,22.4-7.9l1.7,1c-3.9,5.5-8.7,8.8-15.5,10c-23.7,4-50,0.9-73.9,0.9c-47.9,0.5-95.8,0.7-143.7,0.6
	c8.9-2.9,22.5-1.1,31.9-1l1-1l-1.3-0.8l1,1.5l-1.7-1.8c-10.5-0.7-21.2-0.2-31.8,0l-7.6-0.6c19.2-2.1,39.9-0.9,59.3-1.2
	C985.3,838.6,1034.1,838,1082.5,839z"/>
<path class="st3" d="M807.6,847.7c-3.3,0.8-6.8,1.2-10.2,1.6c-21.6,2.5-44.1,1.7-65.9,2.1c-20.5,0.3-42.8,2.4-63.2-0.4
	c-2.8-0.4-5-1-7.2-2.9c-0.3-0.2-0.5-0.5-0.8-0.8c-1.5-1.4-0.8-0.7-1.9-1.9l1.6-2c-6.2-1.2-11.3-3.1-16.6-6.5l0.5-1.1
	c16.3,8.7,39.6,6,57.7,6.2c31.2-0.7,62.5-1.1,93.7-1.1c1.3,3.2,2.1,4.6,5.1,6.5L807.6,847.7z"/>
<linearGradient id="SVGID_00000025418206332175175050000016688203374417553084_" gradientUnits="userSpaceOnUse" x1="538.0817" y1="963.147" x2="524.7589" y2="974.7771" gradientTransform="matrix(1.9531 0 0 -1.9531 -267.9629 2677.0562)">
	<stop  offset="0" style="stop-color:#6B85FF"/>
	<stop  offset="1" style="stop-color:#87AEFF"/>
</linearGradient>
<path style="fill:url(#SVGID_00000025418206332175175050000016688203374417553084_);" d="M764.6,765.2c2.5,3.3,7.6,3.8,11.2,6
	c3,2.9,6.1,5.7,8.9,8.6c2.6-2.5,5.3-5.9,8.5-7.6c0.3,0.3,0.5,0.7,0.8,1c4.1,5.9,7.1,15.9,5.6,23.1c-1.2,5.7-5.2,10.5-10.1,13.6
	c-5.8,3.6-12.7,4.6-19.3,2.9c-6.9-1.8-13.8-6.1-17.2-12.5c-3.4-6.5-2.4-13.4-0.3-20.1C754.9,772.9,757.7,768.8,764.6,765.2z"/>
<path class="st18" d="M762.9,771.4c3.1,0,6-0.1,8.6,2c2.4,2,2.8,4.1,3.4,7.1c-0.7,0-1.3,0-2-0.1
	C767.6,779.5,765.4,775.5,762.9,771.4z"/>
<path class="st3" d="M1110.1,986.3c12.7,10.2,19.2,34,20.9,49.5c1.3,11.6-4.4,36.5-11.5,46c-0.2,0.3-0.5,0.5-0.7,0.8
	c-4.8,5.7-8.8,12.1-13.8,17.8c-11.3,12.8-26,18.2-40.1,27c-1.7,1-1.1,0.9-2.5,0.9l1.6-2.5c-5.6,0-10.4,3-16,2.6
	c-1.2-1.3-2-2.4-2.9-4c-2.3-0.3-3.3-0.1-5.4,0.6c-5,1.8-566.2,1.3-573.9-1.2c12.5-2.3,30.5-0.6,43.7-0.7l98.8,0.1l328.2,0.2
	c27.2,0,92.3,3.2,115-3.7c23.8-7.2,44.4-25.3,56-47.1c11.2-21.1,15.1-47.5,8-70.5C1114.3,996.6,1112.1,991.5,1110.1,986.3z"/>
<linearGradient id="SVGID_00000029764599504369035660000014414762660621368453_" gradientUnits="userSpaceOnUse" x1="418.4221" y1="1076.3192" x2="466.3532" y2="1063.1327" gradientTransform="matrix(1.9531 0 0 -1.9531 -267.9629 2677.0562)">
	<stop  offset="0" style="stop-color:#778DD7"/>
	<stop  offset="1" style="stop-color:#A4A8DD"/>
</linearGradient>
<path style="fill:url(#SVGID_00000029764599504369035660000014414762660621368453_);" d="M592.2,443l30,0.1
	c26.1,0.2,54.6-1.3,80.4,0.5c-0.3,0.1-0.6,0.1-0.9,0.2c-17.6,3.6-42.9,2.4-61.2,1.7c-7.1-0.3-16.1-1.7-23.1-0.5l0.3,0.3l1-0.7
	l-0.9,2.8c0.7-0.3,1.4-0.9,2.2-0.9c2.3,0.1,27.1,10.8,30.2,12.2c4.1,1.8,9.9,4.7,11.4,9.3c3.5,11.1-5.8,43.9-7.9,56.8
	c-2.5,15-2,30.3-4,45.3c-1,7-2.1,14.3-4.2,21c-1.3,4.1-3,8-4,12.2c-3.1,14-3.3,25.1-11.4,37.6c-19.7,30.6-71.4,46-105.1,53
	c-16.3,3.4-31,7.4-47.2,1.5c-40.3,0.8-80.9,0.5-121.2,0c9.3-3.5,21.2-2.1,31.1-2c20.6,0.2,41.2-0.1,61.8-0.2
	c11.5-0.1,24.8,1.1,36-1.2c9.7-2.1,19.8-7,28.3-12.1c25-14.9,39.9-42.9,47-70.3l0.6-0.9c9.2-16-0.2-44.1,2.1-61.9
	c0.8-6.4,5.6-12.6,7.3-19c1.1-4.2,3.3-7.4,3.6-11.8c1.9-0.7,2.5-0.6,3.8-2.2c3.1-3.6,8.7-8.3,13.2-10c0.2,4.2-0.2,8.3,0.6,12.4
	l1.5,0.6c0.2-18.1,0-36.3-0.6-54.4L592.2,443z"/>
<path class="st1" d="M592.8,462.4c1.9,0.8,3.8,1.7,5.7,2.5l-0.1,0c2,3.8,4.5,8,5.3,12.3c4.3,23.8,7,115.1,0,136.9
	c-4.8,15-13.9,24.5-25,35.2l0.5-0.1c-2.9,2.8-5.8,5.8-9.7,7.1c22.4-27.9,23.2-51.3,23.7-85.6c0.2-18,0.3-35.9,0.1-53.9
	C593.5,498.7,593.3,480.6,592.8,462.4z"/>
<path class="st11" d="M574.3,516c1.9-0.7,2.5-0.6,3.8-2.2c3.1-3.6,8.7-8.3,13.2-10c0.2,4.2-0.2,8.3,0.6,12.4l1.5,0.6
	c0.2,18,0.2,35.9-0.1,53.9c-0.5,34.3-1.4,57.6-23.7,85.6c-18,18.6-40.5,31.7-66.1,36.3c-8.5,1.5-17,1.9-25.6,2.9
	c-40.3,0.8-80.9,0.5-121.2,0c9.3-3.5,21.2-2.1,31.1-2c20.6,0.2,41.2-0.1,61.8-0.2c11.5-0.1,24.8,1.1,36-1.2
	c9.7-2.1,19.8-7,28.3-12.1c25-14.9,39.9-42.9,47-70.3l0.6-0.9c9.2-16-0.2-44.1,2.1-61.9c0.8-6.4,5.6-12.6,7.3-19
	C571.8,523.6,574,520.4,574.3,516z"/>
<linearGradient id="SVGID_00000072987612050671335730000016219295391999807399_" gradientUnits="userSpaceOnUse" x1="592.8202" y1="1027.2874" x2="589.6035" y2="1077.5525" gradientTransform="matrix(1.9531 0 0 -1.9531 -267.9629 2677.0562)">
	<stop  offset="0" style="stop-color:#3D4568"/>
	<stop  offset="1" style="stop-color:#5C668A"/>
</linearGradient>
<path style="fill:url(#SVGID_00000072987612050671335730000016219295391999807399_);" d="M1015.8,661.3c-10.8,1.1-21.9,0.7-32.8,0.7
	l-51.8,0.5l-186.1,2.1c-12.4,0.2-25.3-0.3-37.6,0.8c-8.9,0.8-18.1,3.1-27,3.2c-3.1,0-6-0.7-9-1.8c-9.4-3.6-17.1-12.1-20.8-21.5
	c-3.9-10.1-4.5-35.3,0-45.4c2.6-5.9,7.3-11.5,13.6-13.5c14.7-4.7,90.7-3.9,112-4.2l208.8-3.1l69.5-1.2c12.8-0.3,25.9-1.4,38.8-0.9
	c6.9,0.2,11.7,1.4,17.9,4.4c7.8,5.4,11.1,11.2,12.8,20.6c2.6,13.8,2.4,36.6-6.2,48.3c-4.2,5.7-10.2,9.4-17.3,10.2
	c-2.6,0.3-5.1,0.4-7.6,0c-16,1.2-32.3,0.9-48.4,1C1035.3,661.3,1025.2,662.1,1015.8,661.3z"/>
<path class="st25" d="M1111.4,581.3c7.8,5.4,11.1,11.2,12.8,20.6c2.6,13.8,2.4,36.6-6.2,48.3c-4.2,5.7-10.2,9.4-17.3,10.2
	c-2.6,0.3-5.1,0.4-7.6,0c-16,1.2-32.3,0.9-48.4,1c-9.5,0.1-19.5,0.8-28.9,0c-14.9-2-32,2.4-46.4-1.5l0.6-0.6
	c8.3,0.1,16.4,1.5,24.9,1.2c18.3-0.6,36.3-4.3,54.7-0.9c1.6,0.3,2.9,0.4,4.6,0.3c12.5-2,26.9-1.1,39.7-1.8c2.3-2,4-3.3,7-3.8
	c4.2-0.7,9-1.5,12.8-3.6c4.1-2.2,6.5-5.8,7.7-10.2c2-7.5,3-29.6,1.7-37.2c-0.7-4.1-2.6-8.2-4.7-11.7c-1.5-2.4-3.1-4.9-6-5.6
	c-1,3.4,3.2,34.5,2.9,42.5c-0.2,4.4-1.5,8.9-2.7,13.2c0.8-12.7,2-25.7,0.1-38.4c-0.8-5.4-4.1-15.3-2.1-20.2
	C1110.9,582.5,1111.1,581.9,1111.4,581.3z"/>
<path class="st3" d="M1155.5,1229.4c8.8-2.3,18.1-6.2,26-10.9c14.6-8.6,32.2-28.7,35.9-45.4c3.1-14.2,2-30.9,2-45.5l0.1-59
	l-0.2-270.4l1-181.8c0-28.7,2.2-59.5-1.8-88c-1.7-12.7-5.7-29-13-39.6c-4.7-6.7-10.4-12.8-14.7-19.8c4,1.8,5.6,6.3,9.8,7.8l0.3-1
	c-2.3-2.3-4.4-4.6-6.3-7.3c2.9,0,4.6-0.2,7.3-1.2l0.5-1.1l-3.2-0.4c5.7-2.7,73.7-4.7,84.5-4.7c5.5,2.9,10.4,8.9,14.5,13.4
	c1.4,1.5,2,2.5,4,3.3c0.4,0.2,0.8,0.2,1.2,0.3c1.7,1.9,3.5,3.7,5.3,5.5c8.4,14.3,14.7,28.4,16.1,45.2c1.4,17.5,0.5,35.4,0.4,52.9
	c-0.2,26.4-0.2,52.7-0.1,79.1l-0.1,291.8l-0.2,133.7c0.1,20.6,3,62-1.9,80.9c-5.1,20.2-19.6,37.7-37.4,48.2c-1.7,1-3.5,2-5.3,2.8
	c-1.8,0.9-3.7,1.7-5.5,2.4c-1.9,0.7-3.8,1.3-5.7,1.9c-1.9,0.5-3.9,1-5.8,1.4c-18.8,3.6-39.8,2.5-59,3.3
	C1188,1227.7,1171.6,1229.6,1155.5,1229.4z"/>
<linearGradient id="SVGID_00000168836094147629971160000004599398055575971007_" gradientUnits="userSpaceOnUse" x1="531.9259" y1="781.5742" x2="508.0051" y2="918.4711" gradientTransform="matrix(1.9531 0 0 -1.9531 -267.9629 2677.0562)">
	<stop  offset="0" style="stop-color:#464F76"/>
	<stop  offset="1" style="stop-color:#55688F"/>
</linearGradient>
<path style="fill:url(#SVGID_00000168836094147629971160000004599398055575971007_);" d="M420.2,1107c-9.5-5.1-17.7-15.2-23.4-24.1
	c-15.2-23.6-20.9-51.2-14.7-78.8c0.4-1.6,0.8-3.2,1.2-4.7c0.4-1.6,0.9-3.1,1.4-4.7c0.5-1.5,1.1-3.1,1.7-4.6c0.6-1.5,1.2-3,1.9-4.5
	c0.7-1.5,1.4-3,2.1-4.4c0.7-1.5,1.5-2.9,2.3-4.3c0.8-1.4,1.6-2.8,2.5-4.2c0.9-1.4,1.8-2.7,2.7-4.1c0.9-1.3,1.9-2.6,2.9-3.9
	c1-1.3,2-2.5,3.1-3.8c1.1-1.2,2.2-2.4,3.3-3.6c1.1-1.2,2.3-2.3,3.5-3.5c1.2-1.1,2.4-2.2,3.6-3.3c1.2-1.1,2.5-2.1,3.8-3.1
	c1.3-1,2.6-2,3.9-2.9c1.3-0.9,2.7-1.8,4.1-2.7c12.6-7.9,25.8-12.9,40.6-14.4c28.9-2.8,59.4-1.4,88.4-1.5l170.3,0.3l218.3-0.4
	c24.6,0,76.4-2.9,97.9,2.1c20,4.6,44.2,17.5,55.3,35.3c5.3,7.2,9.5,14.8,13.2,23c2,5.2,4.1,10.3,5.3,15.8c7.1,23.1,3.2,49.4-8,70.5
	c-11.6,21.8-32.2,39.9-56,47.1c-22.6,6.8-87.8,3.7-115,3.7l-328.2-0.2l-98.8-0.1c-13.1,0-31.1-1.7-43.7,0.7
	c-9.1-1.1-17.6-3.4-26.2-6.3C432.4,1114.7,426.2,1111.7,420.2,1107z"/>
<path class="st11" d="M420.2,1107c1.1-0.4,1.7-0.7,2.9-0.6c2.2-1.6,3.2-2.8,6.1-2.5c4,0.4,8.3,3.1,12.1,4.5l-2.8,4.1
	c0.3,1.6,0.7,3.3,1.1,4.9C432.4,1114.7,426.2,1111.7,420.2,1107z"/>
<path class="st11" d="M1097,963.3c5.3,7.2,9.5,14.8,13.2,23c2,5.2,4.1,10.3,5.3,15.8c-0.3-0.4-0.7-0.8-1-1.2
	c-1.4-1.7-1.9-3.6-2.6-5.6c-0.5-1.3-0.2-0.8-1.2-1.9c-5,0.4-7.3,5.5-13,5.6c-8.3,0.1-19.8-0.8-27.6,2.4c-0.4,1.7-0.4,2.9-0.3,4.6
	c0.1,1.9,0.2,2.4-0.6,4c-1.7-9.2-5.1-18.1-6.4-27.4l1.8,1.1l-0.5,0.7c0.9,2.8,1.6,5.5,3.2,8c8.8,1.1,22.3-0.2,30.6-3.5
	c2.8-1.1,5.5-2.7,6.4-5.7c1.5-5.2-5.2-13.6-7.8-17.8L1097,963.3z"/>
<path class="st25" d="M603.8,1010.7c4-1.6,8.3-1.7,12.3,0c7,3.1,11.9,10.5,14.5,17.4c2.3,6.3,3.1,13.5,0.2,19.6
	c-4.7,9.8-11.3,19-21.9,22.6c-7.4,2.6-15.5,2.4-22.6-1.1c-4.5-2.2-10.1-6.2-11.7-11.1l-0.7,4l-1.2,0.1c-1.8-2.3-2.6-3.5-3.3-6.5
	l1.3-2c0.4,0,0.8,0.1,1.1,0.1c3,0,6.1-0.2,9.1-0.8l4.2-0.8c2.3-0.9,4.7-1.8,6.8-2.9c9.1-4.8,12.6-12.3,15.7-21.6
	C607.2,1021.5,606.4,1016.5,603.8,1010.7z"/>
<path class="st27" d="M607.5,1027.8l1.3-4.8c2.4-0.9,2.1-0.5,4.4,0.4c4,5,5.3,11,4.6,17.3c-0.6,5.2-2.8,10.2-7.1,13.4
	c-5,3.6-11.5,4.2-17.4,3c-2.9-0.6-6.3-1.4-8-3.9l-0.2-0.9c2.3-0.9,4.7-1.8,6.8-2.9C600.9,1044.5,604.4,1037,607.5,1027.8z"/>
<path class="st25" d="M507.7,1008.1c5.6-2.2,10.6-1.3,16.1,1c7.4,3.1,13.8,10.7,16.5,18.2c2.5,7.2,1.8,14.1-1.7,20.7
	c-0.7,1.3-1.6,2.4-2.5,3.6c-6.7,9.2-13.7,17.4-25.7,19.3c-8.5,1.3-15.3-1-21.9-6.1c-2.5-1.9-4.9-3.9-7.3-5.9l0.7,1.3
	c-2.1-1.3-3.2-1.6-3.9-4.1c-0.2-0.8-0.4-2.4-0.6-3.3c4.7,0.2,9.6-0.4,14.4-0.8c6.6-2.2,12.7-5.5,16.9-11.1c5.3-7,5.7-13.6,4.5-22
	C511.6,1015,509.6,1011.6,507.7,1008.1z"/>
<path class="st27" d="M513.1,1018.7c3.5-0.8,5.9-0.8,9,1.4c3.5,2.5,4.8,6.8,5,10.9c0.1,1,0.1,1.9,0,2.9c0,1-0.1,1.9-0.3,2.8
	c-0.1,0.9-0.3,1.9-0.5,2.8c-0.2,0.9-0.5,1.8-0.8,2.7c-0.3,0.9-0.7,1.8-1.1,2.6c-0.4,0.9-0.8,1.7-1.3,2.5c-0.5,0.8-1,1.6-1.6,2.4
	c-0.6,0.8-1.2,1.5-1.8,2.2c-3.3,3.6-7.4,6.4-12.4,6.8c-4.1,0.3-10.9-2.1-13.9-4.9c-0.8-0.7-1.1-1.2-1.8-2
	c6.6-2.2,12.7-5.5,16.9-11.1C513.9,1033.7,514.3,1027.1,513.1,1018.7z"/>
<path class="st25" d="M697.8,1011.1c2,0.1,1-0.2,2.7,1.3c0.4,0,0.8-0.1,1.2-0.1c1.8,0,2.6,0.4,4.2,1c2.6,1,4.2,1,7,0.7
	c1.8,1.3,2.3,2.2,3.2,4.1c1.6,3.3,4,5,6.2,7.7c5.4,6.5,7.6,16.2,4.7,24.2c-3.8,10.5-14.5,19.3-24.6,23.8c-6.9,3-14.7,5-22,2.1
	c-5.8-2.3-15.4-8.3-17.6-14.5c-0.9-2.7-0.6-6.2-1.9-8.6l0.7-0.4c4.9,0.2,9.8,0.4,14.8,0.6c2.7-0.6,5.5-1.4,8-2.6
	c8.3-4,13.3-10.3,16.4-18.9C701.2,1023.8,700.3,1018.3,697.8,1011.1z"/>
<path class="st27" d="M700.8,1031.6l1.7-4c2.4-0.5,2.5-0.2,4.6,1.1c3.1,4.3,4,9,3.3,14.3c-0.7,5.1-3.1,10.6-7.3,13.8
	c-5.4,4.1-13.5,3.2-19.7,2.1c-2.5-0.4-4-0.8-5.4-3c-0.6-0.9-1.1-1.8-1.6-2.8c2.7-0.6,5.5-1.4,8-2.6
	C692.8,1046.5,697.7,1040.1,700.8,1031.6z"/>
<path class="st25" d="M792.3,1009.2l1.1-0.2c0.9-0.2,1.8-0.5,2.7-0.8c5.3-1.4,13.2,2.7,17.4,5.7c3.4,2.4,5.4,5,7.3,8.7l-0.1,1.4
	l-3.7-1c0.5,1.6,0.7,2,1.8,3.2c1.6,1.9,1.7,3.9,2.1,6.3c2.6,12.6,5.7,19.5-2.4,31.8c-4.4,6.7-11.5,10.3-19.3,11.7
	c-0.7,0.1-1.3,0.2-2,0.3c-0.7,0.1-1.3,0.1-2,0.2c-0.7,0-1.3,0.1-2,0.1c-0.7,0-1.3,0-2,0c-0.7,0-1.3,0-2-0.1c-0.7,0-1.3-0.1-2-0.2
	c-0.7-0.1-1.3-0.2-2-0.3c-0.7-0.1-1.3-0.2-2-0.4c-0.6-0.1-1.3-0.3-1.9-0.5c-0.6-0.2-1.3-0.4-1.9-0.6c-0.6-0.2-1.3-0.4-1.9-0.7
	c-0.6-0.2-1.2-0.5-1.8-0.8c-0.6-0.3-1.2-0.6-1.8-0.9c-0.6-0.3-1.2-0.6-1.8-1c-0.6-0.3-1.1-0.7-1.7-1c-0.6-0.4-1.1-0.7-1.7-1.1
	c-5.5-3.8-6.9-7.1-8.4-13.4l0.8-0.9l-1-0.1l0-0.6c1.9-0.7,4.7-0.1,6.9-0.8c3-0.6,6-1,9-1.2c1.8-0.5,3.6-1,5.3-1.7
	c9.1-3.7,12.4-10,15.7-18.7C796,1023.4,796,1017,792.3,1009.2z"/>
<path class="st27" d="M797.2,1031.7c0.6-2.9,0.9-5.6,1.1-8.6l1.4-1.2c3.2,1.1,4.7,3.8,6.1,6.7c3.1,6.4,4.5,12.9,1.9,19.6
	c-1.9,4.9-5.7,8.4-10.6,10.2c-5.2,2-12.1,2.1-17.2-0.4c-2-1-3.4-2-4.7-3.9c0.7-1.9,0.2-1.3,1-2.1c1.8-0.5,3.6-1,5.3-1.7
	C790.7,1046.7,793.9,1040.3,797.2,1031.7z"/>
<path class="st18" d="M580.8,1053.1c-9.3-0.1-16.7-0.6-23.7-7.5c-5.4-5.2-8.3-12.8-8.3-20.2c0.1-8.3,3.9-16.2,10-21.8
	c5.6-5.2,13-8,20.7-7.3c10.4,0.9,18,6.7,24.4,14.4c2.5,5.8,3.4,10.8,3.7,17.1c-3.1,9.3-6.6,16.7-15.7,21.6c-2.2,1.1-4.5,2-6.8,2.9
	L580.8,1053.1z"/>
<path class="st18" d="M661.7,1052.4c-3.1-1.3-6.1-2.7-8.8-4.7c-6-4.5-10.1-11.9-10.9-19.3c-0.8-8.1,2.1-16.2,7.4-22.3
	c0.7-0.8,1.4-1.5,2.2-2.2c0.8-0.7,1.5-1.3,2.4-1.9c0.8-0.6,1.7-1.2,2.6-1.7c0.9-0.5,1.8-1,2.7-1.4c0.9-0.4,1.9-0.8,2.9-1.1
	c1-0.3,2-0.6,3-0.8c1-0.2,2-0.4,3-0.5c1-0.1,2-0.2,3.1-0.2c13.2-0.2,17.4,5.7,25.8,14c0.3,0.3,0.5,0.5,0.8,0.8
	c2.5,7.2,3.4,12.8,3,20.5c-3.1,8.5-8.1,14.9-16.4,18.9c-2.5,1.2-5.3,2-8,2.6C671.5,1052.8,666.6,1052.6,661.7,1052.4z"/>
<path class="st18" d="M477.3,1052.6c-4.4-1.2-8.3-2.5-12.1-5.2c-6.4-4.7-10.6-11.3-11.8-19.2c-0.1-0.9-0.2-1.8-0.3-2.8
	c0-0.9,0-1.9,0-2.8c0.1-0.9,0.2-1.9,0.3-2.8c0.1-0.9,0.3-1.8,0.6-2.7c0.2-0.9,0.5-1.8,0.9-2.7c0.3-0.9,0.7-1.7,1.1-2.5
	c0.4-0.8,0.9-1.6,1.4-2.4c0.5-0.8,1-1.5,1.6-2.3c0.6-0.8,1.3-1.6,2-2.3c0.7-0.7,1.4-1.4,2.2-2.1c0.8-0.7,1.6-1.3,2.4-1.8
	c0.8-0.6,1.7-1.1,2.6-1.6c0.9-0.5,1.8-0.9,2.7-1.3c0.9-0.4,1.9-0.7,2.9-1c1-0.3,2-0.5,3-0.7c1-0.2,2-0.3,3-0.4
	c11.3-0.8,20,4.6,27.9,11.9c2,3.5,3.9,6.9,5.4,10.7c1.2,8.4,0.8,14.9-4.5,22c-4.3,5.7-10.3,9-16.9,11.1
	C486.9,1052.2,482,1052.9,477.3,1052.6z"/>
<path class="st18" d="M767.2,1053.3c-1.4-0.1-2.7-0.3-4.1-0.4c-6.8-0.6-12.1-2.5-17.2-7.2c-5.6-5.1-8.7-12.7-8.7-20.3
	c0-8.2,3.7-16,9.6-21.6c5.8-5.4,13.2-8.3,21.1-7.9c11.1,0.5,17.2,5.5,24.4,13.2c3.6,7.8,3.7,14.2,4.9,22.5
	c-3.3,8.6-6.6,15-15.7,18.7c-1.7,0.7-3.5,1.2-5.3,1.7C773.1,1052.3,770.2,1052.7,767.2,1053.3z"/>
<linearGradient id="SVGID_00000119797772657125771650000013115684716255140224_" gradientUnits="userSpaceOnUse" x1="536.9666" y1="792.3019" x2="534.803" y2="856.9238" gradientTransform="matrix(1.9531 0 0 -1.9531 -267.9629 2677.0562)">
	<stop  offset="0" style="stop-color:#141322"/>
	<stop  offset="1" style="stop-color:#273259"/>
</linearGradient>
<path style="fill:url(#SVGID_00000119797772657125771650000013115684716255140224_);" d="M1069.2,1009.9c0.8-1.6,0.7-2.1,0.6-4
	c-0.1-1.7-0.1-2.9,0.3-4.6c7.8-3.1,19.3-2.3,27.6-2.4c5.7-0.1,7.9-5.2,13-5.6c1,1.1,0.7,0.6,1.2,1.9c0.7,2.1,1.2,3.9,2.6,5.6
	c0.3,0.4,0.7,0.8,1,1.2c7.1,23.1,3.2,49.4-8,70.5c-11.6,21.8-32.2,39.9-56,47.1c-22.6,6.8-87.8,3.7-115,3.7l-328.2-0.2l-98.8-0.1
	c-13.1,0-31.1-1.7-43.7,0.7c-9.1-1.1-17.6-3.4-26.2-6.3c-0.4-1.6-0.8-3.2-1.1-4.9l2.8-4.1c6.7,2.5,13.8,4.3,20.9,4.8
	c26.8,1.8,54.3,0.9,81.2,0.8l139.2-0.2c65.8,0.6,131.6,0.6,197.4-0.1c36.6,0,73.3,1,109.8-0.3c21.5-0.8,39.8-8.4,54.5-24.4
	C1064.8,1066.6,1070.4,1039.4,1069.2,1009.9z"/>
<path class="st5" d="M297.8,222c13.9,1.8,29.4,0.3,43.5,0.2c13.5-0.1,27.4,0.9,40.8,0.1l64.8,0.3c41.9-0.1,83.4-3.1,115.6,29.6
	c5.7,5.7,10.1,12.1,14.1,19.1c2.5,5.1,5.7,10.5,7.6,15.8c2.6,8.1,5.5,16.8,6.7,25.1c2.2,16.1,0.8,33.6,0.7,49.9l0.5,80.1
	c10,0.1,20.1,0,30.1,0.8l-30-0.1l0.6,19.4c0.6,18.1,0.7,36.3,0.6,54.4l-1.5-0.6c-0.8-4.1-0.3-8.2-0.6-12.4
	c-4.5,1.6-10.1,6.3-13.2,10c-1.4,1.6-1.9,1.5-3.8,2.2c-0.3,4.4-2.4,7.6-3.6,11.8c-1.7,6.4-6.5,12.6-7.3,19
	c-2.3,17.8,7.2,45.9-2.1,61.9l-0.6,0.9c-7.1,27.4-22,55.4-47,70.3c-8.5,5.1-18.6,10.1-28.3,12.1c-11.2,2.4-24.5,1.2-36,1.2
	c-20.6,0.1-41.2,0.4-61.8,0.2c-9.9-0.1-21.7-1.5-31.1,2c-10.8,2.1-24.5,0.5-35.6,0.5l-82.6-0.5c-8.4,0-17.6,0.3-25.6-2.5
	c-12.3-0.9-25.9-9-35.1-16.8c-1.6-1.4-3.2-2.9-4.7-4.4c-1.5-1.5-3-3.1-4.4-4.7c-1.4-1.6-2.7-3.3-4-5c-1.3-1.7-2.5-3.5-3.6-5.3
	c-1.1-1.8-2.2-3.7-3.2-5.6c-1-1.9-1.9-3.8-2.8-5.8c-0.9-2-1.7-3.9-2.4-6c-0.7-2-1.4-4.1-1.9-6.1c-5.3-20.3-3.3-43.4-3.3-64.3
	c0-32.2,0.1-64.4,0.5-96.6c0.2-21,1.4-42.5-0.4-63.4l-0.1-0.9c0.2-21.3,0.1-42.6-0.2-63.9c-0.3-37-2.5-66.2,25.6-94.5
	C206.2,215.6,254.3,222.2,297.8,222z"/>
<path class="st6" d="M239.2,684.8c-7.3-1.5-14.4-1.7-21.4-4.7l0.6-0.9l6,0.2c9.3,4.6,157.9,2.6,183.2,2.7c7.7,1.2,26.2-1.6,31.8,2.4
	C372.8,686.4,305.9,684.2,239.2,684.8z"/>
<path class="st1" d="M418.1,350.1c3.1,0.6,3.3-1,5.5-1c3.4,0,20.3,16,22.7,19.6c0.2,0.3,0.4,0.7,0.6,1l-0.9,1.5l2.1,0.7l-3.2,1.4
	c1.4,3.2,3.6,6,5.1,9.2c5.7,12.6,11.6,32.3,6.6,45.9c-2.4,6.5-8.2,10.4-9.6,17.5l-0.2,1.1c-0.2,0.8-0.3,1.6-0.4,2.4l-1.3-0.7
	l1.2,1.7l-1-1.1l0.9,1.4c-8.3,12.3-19.3,21.7-34.3,24.6c-8.6,1.7-21.5,3.3-29.6-0.3c2.6,0.1,5.2,0.2,7.8-0.1
	c17.8-1.9,35.4-9.2,47-23.3c0.5-0.7,1.1-1.3,1.6-2c0.5-0.7,1-1.4,1.5-2.1c0.5-0.7,0.9-1.4,1.4-2.2c0.4-0.7,0.9-1.5,1.3-2.2
	c0.4-0.8,0.8-1.5,1.1-2.3c0.4-0.8,0.7-1.6,1-2.3c0.3-0.8,0.6-1.6,0.9-2.4c0.3-0.8,0.5-1.6,0.8-2.4c0.2-0.8,0.5-1.6,0.7-2.5
	c0.2-0.8,0.4-1.7,0.5-2.5c0.2-0.8,0.3-1.7,0.4-2.5c0.1-0.8,0.2-1.7,0.3-2.5c0.1-0.9,0.1-1.7,0.2-2.6c0-0.9,0-1.7,0-2.6
	c0-0.9,0-1.7-0.1-2.6c-0.1-0.9-0.1-1.7-0.2-2.6c-1.1-10.2-7.2-33.7-15.3-40.3l-1.8,0.4C427.4,365,423.4,357.4,418.1,350.1z"/>
<path class="st12" d="M431.1,373.2l1.8-0.4c8.1,6.6,14.2,30.1,15.3,40.3c0.1,0.8,0.2,1.7,0.2,2.6c0,0.9,0.1,1.7,0.1,2.6
	c0,0.9,0,1.7,0,2.6c0,0.9-0.1,1.7-0.2,2.6c-0.1,0.9-0.2,1.7-0.3,2.5c-0.1,0.8-0.3,1.7-0.4,2.5c-0.2,0.8-0.3,1.7-0.5,2.5
	c-0.2,0.8-0.4,1.7-0.7,2.5c-0.2,0.8-0.5,1.6-0.8,2.4c-0.3,0.8-0.6,1.6-0.9,2.4c-0.3,0.8-0.7,1.6-1,2.3c-0.4,0.8-0.7,1.5-1.1,2.3
	c-0.4,0.8-0.8,1.5-1.3,2.2c-0.4,0.7-0.9,1.5-1.4,2.2c-0.5,0.7-1,1.4-1.5,2.1c-0.5,0.7-1,1.4-1.6,2c-11.5,14.1-29.1,21.5-47,23.3
	c-2.6,0.3-5.2,0.2-7.8,0.1l-1.5-0.5l0.3-2.1c-2.1,0.5-4.3,1-6.4,1.3c-2.8,0.5-5.6,0.9-8-0.8c6.6-0.5,12.9-2.2,19.3-3.8
	c7.1-2.9,14-6.1,20.2-10.7c18.3-13.7,25.5-33.7,28.5-55.5c0-6.2,0.2-12.3-1-18.4C433.3,380.7,432,376.8,431.1,373.2z"/>
<path class="st12" d="M477,553.1l1.5-0.1c12.2,10.8,21.8,45.7,23.1,61.8c0.3,3.7-0.2,7.6-0.4,11.3c-5,7.9-10.5,11.3-19.6,13.3
	c-24.2,5.3-62.1,0.4-88,1.5l0.2,0.6l6.4,2.2l-0.7,1.1l1.6-0.6c-4.9,0.2-8.1,0.7-12.5-1.6c-2.7-1.4-6.3-2.4-9.3-2.4
	c-18.5,0.7-39.7,0.6-58.1-1.9c-5.4-0.7-10.4-3.6-15.7-4.2c-8.8-1-18,1.2-26.9,0.2c-4.8-0.5-11.9,1.1-15.8-0.8l3.3,0.4l-0.8-0.9
	c13.4-1.1,27.3-0.3,40.7-0.3l81.8-0.2c16.8,0,34.2,0.9,50.9-0.5l1.1-0.1c12.4-0.4,28.9,2.1,40.5-2.7c4.8-2,8.4-5.7,10.2-10.6
	C496.4,602.6,483.8,568.3,477,553.1z"/>
<path class="st1" d="M523.2,661c0.3,0,0.7,0,1-0.1c8.6-1.5,21-27.5,25.9-34.9c0.5,0.5-0.4,1.3-0.7,1.9c-2.6,6.3-13.9,21-13.1,27.1
	c10.7-6.6,11.9-20.4,18.2-30.2c3.2-5.1,3.9-10.9,5.4-16.7l1,1.4c-7.1,27.4-22,55.4-47,70.3c-8.5,5.1-18.6,10.1-28.3,12.1
	c-11.2,2.4-24.5,1.2-36,1.2c-20.6,0.1-41.2,0.4-61.8,0.2c-9.9-0.1-21.7-1.5-31.1,2c-10.8,2.1-24.5,0.5-35.6,0.5l-82.6-0.5
	c-8.4,0-17.6,0.3-25.6-2.5c3.9-2.7,72.7-1.7,83-2l1.4-0.9l1.3,0c-1.7-1.7-3.3-1.5-5.7-1.8l2.8-1.1c-6.5-4.2-45.5,0.9-55.4-2
	c-0.4-0.1-0.7-0.3-1-0.4c66.6-0.6,133.6,1.7,200.2-0.3c11.9,1.7,25.5,1.2,37.6,0.9c16.3-0.4,35.1-6.5,46.5-18.5l-0.1-1
	c-3.3,0-5.8,2.3-8.6,4.1l0.2-1.7C516.8,665,520.2,663.1,523.2,661z"/>
<path class="st2" d="M449.5,519.9c5.9-1.3,13.6,2.5,18.5,5.6c12.4,7.9,23.4,19.5,31.4,31.7c3.1,4.7,6.7,9.1,9.2,14.2
	c5.1,10.5,13.7,38,11.2,49.2c-2.5,11.1-12.5,20.8-20.5,28.3l-1.3,0c-13.4,0.2-26.5,2.4-39.8,3.1c-5.7,0.3-11.4-0.4-17,0
	c-1.5,0.1-2.1,0.6-3.3,1.4c-5.5,3.4-67.5,0-80.1,1.4c-3.6,0.4-7-2.3-10.4-3.1c-3-0.7-6.5,1.8-9.6,2.1c-6.2,0.5-15.1-4-20.9-6.2
	c-0.6-0.2-1.1-0.6-1.7-0.9l-1-1.2l2.4-2.2l1.3-0.1c-1-0.7-0.5-0.2-0.8-1.8l2.3-1.4c2.4,0.5,4.4,0.3,6.9,0l1.4-0.1
	c1.8,1.8,3.6,3.6,5.5,5.3c3.9,0.6,8,1.5,11.9,1.3l-3.3-2.7l0.5-0.8c8.4,1.5,14.6,2.7,23.3,2.4c5.1-0.7,8.7-3.9,13.6-5.4
	c3,0,6.6,1,9.3,2.4c4.4,2.3,7.6,1.8,12.5,1.6l-1.6,0.6l0.7-1.1l-6.4-2.2l-0.2-0.6c26-1.1,63.8,3.8,88-1.5c9.2-2,14.7-5.4,19.6-13.3
	c0.3-3.7,0.7-7.5,0.4-11.3c-1.4-16.1-10.9-51-23.1-61.8l-1.5,0.1c-2.5-2.8-4.2-6.7-6.1-9.9c-3.1-2.7-6.4-8.1-9-11.4
	C457.7,527.8,453.6,523.8,449.5,519.9z"/>
<path class="st11" d="M461.9,531.7c16.4,5.9,29.1,28.4,36.2,43.2c7.1,14.9,17.3,39.4,11.5,55.9c-2,5.7-6,10.1-11.6,12.4
	c-20.6,8.5-118.8,6.1-146.5,5.2c-11.7-0.4-24.6-2.6-36.2-1.7l-1-1.2l2.4-2.2l1.3-0.1c-1-0.7-0.5-0.2-0.8-1.8l2.3-1.4
	c2.4,0.5,4.4,0.3,6.9,0l1.4-0.1c1.8,1.8,3.6,3.6,5.5,5.3c3.9,0.6,8,1.5,11.9,1.3l-3.3-2.7l0.5-0.8c8.4,1.5,14.6,2.7,23.3,2.4
	c5.1-0.7,8.7-3.9,13.6-5.4c3,0,6.6,1,9.3,2.4c4.4,2.3,7.6,1.8,12.5,1.6l-1.6,0.6l0.7-1.1l-6.4-2.2l-0.2-0.6c26-1.1,63.8,3.8,88-1.5
	c9.2-2,14.7-5.4,19.6-13.3c0.3-3.7,0.7-7.5,0.4-11.3c-1.4-16.1-10.9-51-23.1-61.8l-1.5,0.1c-2.5-2.8-4.2-6.7-6.1-9.9
	C467.8,540.5,464.5,535,461.9,531.7z"/>
<path class="st6" d="M470.1,254.2c21.3-0.7,37.7,0.4,55.1,14.1c-4.8,2.4-12.4-3.1-17-5c-14.6-6-31.7-5.3-47.2-5.2l-144.3,1.2
	c-11,0-42.8-2.2-50.8,0c0.8,3.9-0.1,5.8-2.3,9.2c-4.4,6.6-9.3,12.5-17,15.2c-0.6,0.2-1.1,0.4-1.7,0.7l0,2.2l4.1,2.6l0.1,1.5
	c-0.7,0.8-0.9,1.2-2,1.6c-5.3,2.4-13.2,1.5-18.2,4.4c-8.6,5.2-13.7,15.8-24.2,21.5c-1.5,0.8-0.9,0.5-2.5,1.9c1.8,2.9,2.9,4,3.1,7.5
	c-3.8,4.5-8.7,9.5-11.3,14.7c-4,8-4.4,17-10.1,24.3c-5,6.3-6.9,16.3-8,24.1c-5.2,37.7-2.7,84-2.7,122.7c0,13.6-1.7,36.3-0.2,48.7
	c0,0.3,0.1,0.6,0.1,0.9l1.7,0.7l0.6,4.3c0.7-8-1.3-17.4,0.8-25c2.5,4.1,0.5,34.2,0.5,42.2c0,6.4,2,47.7,1.6,49.3
	c-0.2,0.6-0.4,1.2-0.6,1.8l-0.8,0.1c-2.7-8.5-4.2-16.7-4.6-25.6c-1-20.4-0.2-41.1-0.2-61.5l0.1-126.6c-0.1-10.4-1.9-20.5-2.6-30.9
	c-1.2-19.4-1.8-66.4,1.4-84.4c0.5-2.9,0.4-2.7,2.8-4.4c4.9-12,10.4-23.2,19.8-32.4c7.6-7.4,16.1-11.8,26.4-14.2
	c17-3.9,36.6-2.1,53.9-2.2l84.3,0.1L470.1,254.2z"/>
<path class="st3" d="M173.9,302.9c4.9-12,10.4-23.2,19.8-32.4c7.6-7.4,16.1-11.8,26.4-14.2c17-3.9,36.6-2.1,53.9-2.2l84.3,0.1
	l111.8,0l-9.9,1.2c3.3,0.6,6.7,0.6,10,0.7l-9,0.7c-25.3-0.3-50.6,0.6-75.9-0.1l-104.6,0.8c-20.6,0.2-44.9-2.4-64.8,3.6
	c-8.3,2.5-16.9,9-22.9,15.3c-8,8.5-10.2,22.7-17.7,29.9l-1.2-0.2L173.9,302.9z"/>
<linearGradient id="SVGID_00000142162588588019494880000016109083249067140277_" gradientUnits="userSpaceOnUse" x1="348.4348" y1="1149.8145" x2="288.9041" y2="1188.0514" gradientTransform="matrix(1.9531 0 0 -1.9531 -267.9629 2677.0562)">
	<stop  offset="0" style="stop-color:#D7D8EC"/>
	<stop  offset="1" style="stop-color:#FFFFFF"/>
</linearGradient>
<path style="fill:url(#SVGID_00000142162588588019494880000016109083249067140277_);" d="M351.2,471.7c-17-1.1-34.2-11.6-46.2-23.1
	c-14.4-13.9-22.1-32.2-22.4-52.2c-0.3-19.3,8.8-38.7,22.3-52.3c13.7-13.8,33.8-22.5,53.2-22.5c25.2-0.1,42.4,11.3,59.8,28.4
	c5.3,7.4,9.3,14.9,13.1,23.1c0.9,3.6,2.1,7.5,2.3,11.2c1.3,6.1,1,12.2,1,18.4c-3,21.8-10.2,41.8-28.5,55.5
	c-6.2,4.6-13.1,7.8-20.2,10.7c-6.4,1.5-12.7,3.3-19.3,3.8C361.3,472.7,356.4,472.6,351.2,471.7z"/>
<path class="st3" d="M351.2,471.7c8.1-0.5,23.5-0.3,30.4-4.2c2.8-1.6,1.5-9.6,4-12.7c3.1-3.7,9.4-5.6,13-9.3
	c10.3-10.4,28.3-32.2,32.9-45.8c1.4-4.2-0.1-9.2,1.2-13.6c0.2-0.6,0.4-1.2,0.6-1.8c1.3,6.1,1,12.2,1,18.4
	c-3,21.8-10.2,41.8-28.5,55.5c-6.2,4.6-13.1,7.8-20.2,10.7c-6.4,1.5-12.7,3.3-19.3,3.8C361.3,472.7,356.4,472.6,351.2,471.7z"/>
<path class="st18" d="M439.6,632c-17.7-1-35.7-0.3-53.4-0.3l-95.6-0.1c-16.4,0-34.1,1.8-50.3-0.4c-5.3-0.7-9.5-2.2-13.9-5.4
	c-4.1-3-6.7-6.2-7.4-11.3c-3-22.7,9.7-57.7,23.3-76c21.4-28.9,56.9-45.8,92-50.9c43.8-6.4,80.3,6,115.1,32.1
	c4.1,4,8.2,7.9,12.4,11.8c2.6,3.3,5.9,8.8,9,11.4c1.9,3.3,3.6,7.1,6.1,9.9c6.8,15.3,19.5,49.5,13.3,65.7c-1.8,4.8-5.4,8.6-10.2,10.6
	C468.5,634.1,452,631.6,439.6,632z"/>
<linearGradient id="SVGID_00000163756219629530281680000005416957641491414168_" gradientUnits="userSpaceOnUse" x1="434.823" y1="1075.8668" x2="201.4573" y2="1200.5409" gradientTransform="matrix(1.9531 0 0 -1.9531 -267.9629 2677.0562)">
	<stop  offset="0" style="stop-color:#355AE5"/>
	<stop  offset="1" style="stop-color:#8EA8FC"/>
</linearGradient>
<path style="fill:url(#SVGID_00000163756219629530281680000005416957641491414168_);" d="M297.8,222c13.9,1.8,29.4,0.3,43.5,0.2
	c13.5-0.1,27.4,0.9,40.8,0.1l64.8,0.3c41.9-0.1,83.4-3.1,115.6,29.6c5.7,5.7,10.1,12.1,14.1,19.1c2.5,5.1,5.7,10.5,7.6,15.8
	c2.6,8.1,5.5,16.8,6.7,25.1c2.2,16.1,0.8,33.6,0.7,49.9l0.5,80.1c10,0.1,20.1,0,30.1,0.8l-30-0.1l0.6,19.4
	c0.6,18.1,0.7,36.3,0.6,54.4l-1.5-0.6c-0.8-4.1-0.3-8.2-0.6-12.4c-4.5,1.6-10.1,6.3-13.2,10c-1.4,1.6-1.9,1.5-3.8,2.2
	c-0.3,4.4-2.4,7.6-3.6,11.8c-1.7,6.4-6.5,12.6-7.3,19c-2.3,17.8,7.2,45.9-2.1,61.9l-0.6,0.9l-1-1.4c-1.5,5.8-2.1,11.6-5.4,16.7
	c-6.3,9.8-7.5,23.6-18.2,30.2c-0.7-6.1,10.5-20.8,13.1-27.1c0.3-0.6,1.1-1.4,0.7-1.9c-4.9,7.4-17.2,33.4-25.9,34.9
	c-0.3,0.1-0.7,0.1-1,0.1c2.7-3.2,5.3-6.4,7.8-9.8c2.5-3.4,4.8-6.8,7-10.3c2.2-3.5,4.3-7.1,6.2-10.8c1.9-3.7,3.8-7.4,5.4-11.3
	c1.8-4.1,3.4-8,3.6-12.5c0.6-16.6-0.1-33.6-0.1-50.2l-0.1-104.4l0.2-97c0-13.9,0.8-28.1,0.2-41.9c-0.1-3.5-0.8-6.6-2.1-9.9
	c-4.8-12-13.8-29.3-26.3-34.7c-17.4-13.7-33.8-14.8-55.1-14.1l-111.8,0l-84.3-0.1c-17.4,0-37-1.7-53.9,2.2
	c-10.3,2.4-18.8,6.8-26.4,14.2c-9.4,9.2-14.9,20.4-19.8,32.4c-2.4,1.7-2.3,1.5-2.8,4.4c-3.2,17.9-2.6,65-1.4,84.4
	c0.6,10.4,2.5,20.4,2.6,30.9l-0.1,126.6c0,20.4-0.8,41.1,0.2,61.5c0.4,9,1.9,17.1,4.6,25.6c-0.8,3.4,0.5,5.7,2.2,8.8
	c6.1,11.3,22.3,23.2,33.8,28.7c3.1,1.5,6.5,2.2,9.7,3.6c2,0.8,1.6,0.3,1.9,2l-6-0.2l-0.6,0.9c7,2.9,14.1,3.1,21.4,4.7
	c0.3,0.1,0.7,0.3,1,0.4c10,2.9,48.9-2.2,55.4,2l-2.8,1.1c2.3,0.3,4,0.1,5.7,1.8l-1.3,0l-1.4,0.9c-10.3,0.3-79.1-0.7-83,2
	c-12.3-0.9-25.9-9-35.1-16.8c-1.6-1.4-3.2-2.9-4.7-4.4c-1.5-1.5-3-3.1-4.4-4.7c-1.4-1.6-2.7-3.3-4-5c-1.3-1.7-2.5-3.5-3.6-5.3
	c-1.1-1.8-2.2-3.7-3.2-5.6c-1-1.9-1.9-3.8-2.8-5.8c-0.9-2-1.7-3.9-2.4-6c-0.7-2-1.4-4.1-1.9-6.1c-5.3-20.3-3.3-43.4-3.3-64.3
	c0-32.2,0.1-64.4,0.5-96.6c0.2-21,1.4-42.5-0.4-63.4l-0.1-0.9c0.2-21.3,0.1-42.6-0.2-63.9c-0.3-37-2.5-66.2,25.6-94.5
	C206.2,215.6,254.3,222.2,297.8,222z"/>
<path class="st2" d="M561.4,608.7c4.5-38.3-0.5-78.8,1.7-117.5c1.7,8.8-1.9,19.8,0.8,28.3c0.7,2.2,1.4,3.4,3.5,4.5
	c1.9-3.7,3.3-5.8,6.9-8c-0.3,4.4-2.4,7.6-3.6,11.8c-1.7,6.4-6.5,12.6-7.3,19C561.2,564.5,570.6,592.7,561.4,608.7z"/>
</svg>
